<svg xmlns="http://www.w3.org/2000/svg" viewBox="0 0 200.02 196.36"><defs><style>.cls-1{fill:#b29d64;}</style></defs><g id="圖層_2" data-name="圖層 2"><g id="圖層_1-2" data-name="圖層 1"><path class="cls-1" d="M172.55,68.88l17.38-17.19C161.28,0,104-.06,100,0S38.74,0,10.09,51.69L27.47,68.88,0,96.35l100,100,100-100Zm-43.76,29.3H116.85l3.66-7.94Zm-27.15-28L118.2,87.26l-5,10.92H101.64Zm-3.26,0v28H86.84l-5-10.92ZM79.51,90.24l3.67,7.94h-12ZM100,187h0L8.81,95.84,31,72.32,58.6,99.88l-4.68,4.69H146.1l-4.68-4.69L169,72.32l22.24,23.52L100,187Z"/><polygon class="cls-1" points="45.11 92.15 23.29 92.15 16.95 98.74 33.88 115.67 51.25 98.29 45.11 92.15"/><polygon class="cls-1" points="33.98 81.01 28.94 86.26 39.23 86.26 33.98 81.01"/><polygon class="cls-1" points="176.74 92.15 154.91 92.15 148.77 98.29 166.15 115.67 183.07 98.74 176.74 92.15"/><polygon class="cls-1" points="166.04 81.01 160.79 86.26 171.09 86.26 166.04 81.01"/><path class="cls-1" d="M49.56,109.77v.11a2.66,2.66,0,0,0,2.66,2.66h95.53a2.72,2.72,0,0,0,0-5.43H52.22A2.66,2.66,0,0,0,49.56,109.77Z"/><path class="cls-1" d="M101.17,115.67H46.25L43,118.92l20.23,20.23,18-18,19,19,19-19,18,18,20.22-20.23-3.25-3.25ZM63.08,128.22l-7.6-7.6H70.69Zm36.93,0-7.6-7.6h15.2Zm36.93,0-7.6-7.6h15.2Z"/><polygon class="cls-1" points="111.31 130.68 99.94 142.05 88.57 130.68 74.93 130.68 63.59 142.02 69.88 148.34 81.96 136.26 99.94 154.24 117.92 136.26 130.01 148.34 136.29 142.02 124.96 130.68 111.31 130.68"/><polygon class="cls-1" points="99.94 160.54 88.26 148.85 77.8 148.85 99.84 171.67 99.84 171.88 99.94 171.78 100.05 171.88 100.05 171.67 122.08 148.85 111.63 148.85 99.94 160.54"/></g></g></svg>