<svg xmlns="http://www.w3.org/2000/svg" xmlns:xlink="http://www.w3.org/1999/xlink" viewBox="0 0 289.93 283.72"><defs><style>.cls-1,.cls-4{fill:#040000;}.cls-1{stroke:#fff;stroke-miterlimit:10;stroke-width:5px;}.cls-2{fill:url(#未命名漸層_67);}.cls-3{fill:#fff;}</style><linearGradient id="未命名漸層_67" x1="143.96" y1="255.57" x2="143.96" y2="63.92" gradientUnits="userSpaceOnUse"><stop offset="0.19" stop-color="#5ec0c4"/><stop offset="0.51" stop-color="#2ca6e0"/><stop offset="0.92" stop-color="#015389"/></linearGradient></defs><g id="圖層_2" data-name="圖層 2"><g id="圖層_1-2" data-name="圖層 1"><path class="cls-1" d="M247.55,99.91l24.57-24.32C231.61,2.48,150.59,2.42,145,2.51c-5.62-.09-86.64,0-127.15,73.08L42.38,99.91,3.54,138.75,145,280.18,286.39,138.75Z"/><polygon class="cls-2" points="10.46 136.82 49.22 98.06 58.57 76.39 219.43 73.77 277.46 139.47 145.29 271.65 10.46 136.82"/><path class="cls-3" d="M218.76,75.28l56.64,64.13L145.29,269.53,12.58,136.82,50.49,98.91l9.07-21,159.2-2.6m1.34-3-1.38,0L59.51,74.88l-1.93,0-.77,1.78L48,97.2l-37.5,37.5-2.12,2.12,2.12,2.12,132.7,132.71,2.13,2.12,2.12-2.12L277.53,141.53l2-2-1.87-2.11L221,73.29l-.91-1Z"/><path class="cls-4" d="M247.55,99.91l24.57-24.32C231.61,2.48,150.59,2.42,145,2.51c-5.62-.09-86.64,0-127.15,73.08L42.38,99.91,3.54,138.75,145,280.18,286.39,138.75Zm-61.89,41.43H168.77L174,130.11ZM147.27,101.7l23.42,24.19-7.1,15.45H147.27Zm-4.61,0v39.64H126.34l-7.1-15.45ZM116,130.11l5.19,11.23h-16.9ZM145,267h0L16,138l31.45-33.26,39,39-6.62,6.62H210.14l-6.62-6.62,39-39L273.94,138,145,267Z"/><polygon class="cls-4" points="67.33 132.81 36.46 132.81 27.51 142.13 51.44 166.06 76.01 141.49 67.33 132.81"/><polygon class="cls-4" points="51.59 117.06 44.46 124.49 59.01 124.49 51.59 117.06"/><polygon class="cls-4" points="253.46 132.81 222.6 132.81 213.91 141.49 238.49 166.06 262.42 142.13 253.46 132.81"/><polygon class="cls-4" points="238.34 117.06 230.92 124.49 245.47 124.49 238.34 117.06"/><path class="cls-4" d="M73.62,157.72v.16a3.76,3.76,0,0,0,3.76,3.76H212.47a3.84,3.84,0,0,0,0-7.68H77.38A3.76,3.76,0,0,0,73.62,157.72Z"/><path class="cls-4" d="M146.6,166.07H68.94l-4.61,4.6,28.61,28.61,25.43-25.44,26.91,26.91,26.91-26.91,25.44,25.44,28.61-28.61-4.61-4.6ZM92.74,183.82,82,173.07H103.5Zm52.22,0-10.75-10.75h21.5Zm52.22,0-10.75-10.75h21.5Z"/><polygon class="cls-4" points="160.95 187.3 144.87 203.38 128.79 187.3 109.49 187.3 93.46 203.33 102.35 212.28 119.44 195.18 144.87 220.61 170.29 195.18 187.39 212.28 196.27 203.33 180.24 187.3 160.95 187.3"/><polygon class="cls-4" points="176.18 212.99 161.39 212.99 144.87 229.52 128.34 212.99 113.56 212.99 144.72 245.27 176.18 212.99"/></g></g></svg>