<svg xmlns="http://www.w3.org/2000/svg" xmlns:xlink="http://www.w3.org/1999/xlink" viewBox="0 0 30 30"><defs><style>.cls-1{fill:none;}.cls-2{fill:#b29d64;}.cls-3{clip-path:url(#clip-path);}.cls-4{fill:#fff;fill-rule:evenodd;}</style><clipPath id="clip-path"><rect class="cls-1" x="5" y="5" width="20" height="20"/></clipPath></defs><g id="圖層_2" data-name="圖層 2"><g id="圖層_1-2" data-name="圖層 1"><circle class="cls-2" cx="15" cy="15" r="15"/><g class="cls-3"><g id="Instagram"><path id="Path_3" data-name="Path 3" class="cls-4" d="M15,6.78a29.7,29.7,0,0,1,4,.11,5.09,5.09,0,0,1,1.89.33,3.94,3.94,0,0,1,1.89,1.89A5.09,5.09,0,0,1,23.11,11c0,1,.11,1.33.11,4a29.7,29.7,0,0,1-.11,4,5.09,5.09,0,0,1-.33,1.89,3.94,3.94,0,0,1-1.89,1.89,5.09,5.09,0,0,1-1.89.33c-1,0-1.33.11-4,.11a29.7,29.7,0,0,1-4-.11,5.09,5.09,0,0,1-1.89-.33,3.94,3.94,0,0,1-1.89-1.89A5.09,5.09,0,0,1,6.89,19c0-1-.11-1.33-.11-4a29.7,29.7,0,0,1,.11-4,5.09,5.09,0,0,1,.33-1.89A4.12,4.12,0,0,1,8,8a1.88,1.88,0,0,1,1.11-.78A5.09,5.09,0,0,1,11,6.89a29.7,29.7,0,0,1,4-.11M15,5a33.19,33.19,0,0,0-4.11.11,6.77,6.77,0,0,0-2.44.45A4.2,4.2,0,0,0,6.67,6.67,4.3,4.3,0,0,0,5.56,8.45a5,5,0,0,0-.45,2.44A33.19,33.19,0,0,0,5,15a33.19,33.19,0,0,0,.11,4.11,6.82,6.82,0,0,0,.45,2.45,4.33,4.33,0,0,0,1.11,1.77,4.2,4.2,0,0,0,1.78,1.11,6.77,6.77,0,0,0,2.44.45A33.19,33.19,0,0,0,15,25a33.19,33.19,0,0,0,4.11-.11,6.82,6.82,0,0,0,2.45-.45,4.63,4.63,0,0,0,2.88-2.88,6.86,6.86,0,0,0,.45-2.45c0-1.11.11-1.44.11-4.11a33.19,33.19,0,0,0-.11-4.11,6.82,6.82,0,0,0-.45-2.45,4.33,4.33,0,0,0-1.11-1.77,4.23,4.23,0,0,0-1.77-1.11,6.86,6.86,0,0,0-2.45-.45A33.19,33.19,0,0,0,15,5m0,4.89a5,5,0,0,0-5.11,4.94V15A5.11,5.11,0,1,0,15,9.89h0m0,8.44a3.26,3.26,0,0,1-3.33-3.21V15a3.26,3.26,0,0,1,3.21-3.33H15a3.26,3.26,0,0,1,3.33,3.21V15a3.26,3.26,0,0,1-3.21,3.33H15m5.33-9.88a1.21,1.21,0,0,0-1.22,1.22,1.23,1.23,0,0,0,2.45,0h0a1.23,1.23,0,0,0-1.23-1.22"/></g></g></g></g></svg>