<svg xmlns="http://www.w3.org/2000/svg" xmlns:xlink="http://www.w3.org/1999/xlink" viewBox="0 0 563.77 283.72"><defs><style>.cls-1,.cls-4{fill:#040000;}.cls-1{stroke:#fff;stroke-miterlimit:10;stroke-width:5px;}.cls-2{fill:url(#未命名漸層_67);}.cls-3{fill:#fff;}.cls-5{fill:#231815;}.cls-6{fill:#b29d64;}</style><linearGradient id="未命名漸層_67" x1="281.22" y1="255.57" x2="281.22" y2="63.92" gradientUnits="userSpaceOnUse"><stop offset="0.19" stop-color="#5ec1c5"/><stop offset="0.51" stop-color="#2ea7e0"/><stop offset="0.92" stop-color="#02548a"/></linearGradient></defs><g id="圖層_2" data-name="圖層 2"><g id="圖層_1-2" data-name="圖層 1"><path class="cls-1" d="M384.8,99.91l24.58-24.32C368.87,2.48,287.85,2.42,282.22,2.51c-5.63-.09-86.65,0-127.16,73.08l24.58,24.32-38.85,38.84L282.22,280.18,423.65,138.75Z"/><polygon class="cls-2" points="147.72 136.82 186.48 98.06 195.83 76.39 356.69 73.77 414.72 139.47 282.54 271.65 147.72 136.82"/><path class="cls-3" d="M356,75.28l56.64,64.13L282.54,269.53,149.84,136.82l37.91-37.91,9.07-21L356,75.28m1.34-3-1.39,0-159.2,2.6-1.94,0-.76,1.78L185.22,97.2l-37.5,37.5-2.13,2.12,2.13,2.12,132.7,132.71,2.12,2.12,2.13-2.12L414.78,141.53l2-2-1.87-2.11L358.27,73.29l-.91-1Z"/><path class="cls-4" d="M384.8,99.91l24.58-24.32C368.87,2.48,287.85,2.42,282.22,2.51c-5.63-.09-86.65,0-127.16,73.08l24.58,24.32-38.85,38.84L282.22,280.18,423.65,138.75Zm-61.88,41.43H306l5.18-11.23ZM284.53,101.7,308,125.89l-7.11,15.45H284.53Zm-4.61,0v39.64H263.6l-7.1-15.45Zm-26.69,28.41,5.19,11.23h-16.9Zm29,136.89h0l-129-129,31.44-33.26,39,39L217,150.37H347.4l-6.62-6.62,39-39L411.19,138l-129,129Z"/><polygon class="cls-4" points="204.59 132.81 173.72 132.81 164.76 142.13 188.7 166.06 213.27 141.49 204.59 132.81"/><polygon class="cls-4" points="188.84 117.06 181.71 124.49 196.27 124.49 188.84 117.06"/><polygon class="cls-4" points="390.72 132.81 359.86 132.81 351.17 141.49 375.74 166.06 399.68 142.13 390.72 132.81"/><polygon class="cls-4" points="375.6 117.06 368.18 124.49 382.73 124.49 375.6 117.06"/><path class="cls-4" d="M210.88,157.72v.16a3.76,3.76,0,0,0,3.76,3.76H349.72a3.84,3.84,0,0,0,0-7.68H214.64A3.76,3.76,0,0,0,210.88,157.72Z"/><path class="cls-4" d="M283.85,166.07H206.2l-4.61,4.6,28.6,28.61,25.44-25.44,26.91,26.91,26.91-26.91,25.44,25.44,28.6-28.61-4.6-4.6ZM230,183.82l-10.75-10.75h21.5Zm52.22,0-10.75-10.75H293Zm52.22,0-10.75-10.75h21.5Z"/><polygon class="cls-4" points="298.2 187.3 282.13 203.38 266.05 187.3 246.75 187.3 230.72 203.33 239.6 212.28 256.7 195.18 282.13 220.61 307.55 195.18 324.65 212.28 333.53 203.33 317.5 187.3 298.2 187.3"/><polygon class="cls-4" points="313.44 212.99 298.65 212.99 282.13 229.52 265.6 212.99 250.82 212.99 281.98 245.27 313.44 212.99"/><path class="cls-5" d="M43.38,113.06c-21.78,0-32.46-3.94-32.68-12V73.78H76.79V101C76.79,109.1,65.86,113.06,43.38,113.06ZM26.14,100.4c.63,3.91,5.81,6,15.42,6.22,12.69,0,19.71-2.17,19.71-6.1V79.66H26.14ZM8,74.83c-2.22,0-3.08-1.21-3.16-2.42-.79-3.57-1.69-7.48-2.66-11.63l-.38-1.59L3.45,59c10-1.44,18.1-9.92,24.22-25.2-.06-.37-.36-.9-1.82-1.27l-1.14-.28V26.84H46.59l-.68,2A55.87,55.87,0,0,1,23.12,58c14.14-.1,26.88-.59,38-1.45A47.67,47.67,0,0,1,55.8,39.09l-.19-1.68h7.57l.29,1.12c2.2,8.34,8.17,13,18.23,14.39l1.39.19L83,54.5c-.36,5.65-.8,11.46-1.3,17.29l-.17,2-1.9-.79A37.53,37.53,0,0,1,65.1,62.62C52.69,66.15,34.48,69.54,11,72.71a8.33,8.33,0,0,0-.5.81l-.06.09A2.75,2.75,0,0,1,8,74.83Z"/><path class="cls-3" d="M44.49,28.34h0m0,0q-7,20.31-26.81,31.17,26.25,0,45.92-1.67a44.61,44.61,0,0,1-6.31-18.93H62q3.52,13.37,19.49,15.5-.57,8.54-1.3,17.25A35.51,35.51,0,0,1,65.64,60.9Q46.91,66.38,10.26,71.29a4.36,4.36,0,0,0-1.12,1.49A1.25,1.25,0,0,1,8,73.33c-1.11,0-1.67-.37-1.67-1.11Q5.15,66.74,3.67,60.44q16-2.32,25.51-26.44,0-2.24-3-3V28.34H44.49m30.8,46.94V101q0,10.58-31.91,10.57-30.9,0-31.18-10.57V75.28H75.29M41.52,108.12q21.24,0,21.25-7.61V78.16H24.64v22.35q1,7.24,16.88,7.61m7.17-82.78H23.21v8l2.27.57a4.09,4.09,0,0,1,.44.13C20.06,48.26,12.43,56.13,3.24,57.47L0,57.94l.75,3.18c1,4.11,1.85,8,2.63,11.52C3.57,74.54,5,76.33,8,76.33a4.47,4.47,0,0,0,1.17-.15v24.88c.08,3.36,1.88,8,10,10.69,5.56,1.89,13.48,2.8,24.21,2.8,15,0,34.91-1.4,34.91-13.57V74.1l.76.33L82.85,76l.35-4.1c.49-5.84.93-11.67,1.3-17.32l.18-2.8-2.78-.37c-9.39-1.25-15-5.6-17-13.28l-.59-2.24H53.92l.39,3.35a50.66,50.66,0,0,0,4.42,16c-9.23.67-19.56,1.08-30.85,1.23A56.85,56.85,0,0,0,47.33,29.31l1.36-4Zm-4.2,0h0Zm0,6ZM24.56,72.28c16.69-2.54,30.11-5.21,40-8a37.82,37.82,0,0,0,10,8Zm3.08,8.88H59.77v19.35c0,2.23-4.79,4.61-18.21,4.61-4.91-.12-13.14-.91-13.92-4.85V81.16Z"/><path class="cls-5" d="M97.45,112.05c-.54-6.59-1.13-13.52-1.76-20.59l-.14-1.63h4.93l.14,1.34c0,.32.77.4,1.22.42.54-.36,3-3.09,3.68-23.78l0-1.16a10.31,10.31,0,0,1-1.6.11c-3.26,0-7.35-1.37-8.26-7.88l0-.1v-.11c0-3.35,1.41-7.53,8.09-8.35l.14,0H104a9.11,9.11,0,0,1,5.39,1.83l-.31-1.48,1.57-.24A13.25,13.25,0,0,0,118.44,46c-1.45.72-3,1.45-4.65,2.21a2.51,2.51,0,0,1-2.23,1.47,2.06,2.06,0,0,1-2.24-2.06c-.07-1.16-.2-2.46-.39-3.85a8.51,8.51,0,0,1-4,.9c-3.2,0-7.15-1.32-7.9-7.63v-.18c0-3.27,1.34-7.33,7.71-8.16l.14,0H105c4.7.28,7.38,2.79,7.61,7.09a16.31,16.31,0,0,0,2.53-6.38,3.61,3.61,0,0,0-.91-.13l-1.44-.06v-4.7h16.73l-.63,2a26.14,26.14,0,0,1-2,4.72H138l-.69,2.05a2.16,2.16,0,0,0,1.46,1.07V29.84a7.57,7.57,0,0,0-2.49-.28h-1.5V24.8h19.42v4.72l-1.46,0a8,8,0,0,0-2.53.33V34.4c1.83-.59,1.83-1.59,1.83-2.07v-1.5h4.3v5.72c1.13-.82,2.08-3.31,2.7-7.11a3.82,3.82,0,0,0-1.1-.16l-1.45-.05V24.52h16.36l-.52,1.89a26.85,26.85,0,0,1-1.38,3.95h11.37l-.64,2a31.72,31.72,0,0,1-3,6.69l.05.49c.25,2.68,1,6,3,6.82l1,.41-.09,1.11c-.31,3.82-.56,7.89-.74,12.1l-.12,2.63-.07,0v.72l-1.42.07a4.13,4.13,0,0,0-.51.05c.08,3.57.23,6,.39,7.59a3.14,3.14,0,0,1,2.73-1.27c.81,0,3.17.44,3.17,3.82v.16l0,.15c-.54,2.51-3.12,3.79-7.68,3.79h-.13l-.13,0a5.75,5.75,0,0,1-.93-.23V79h-.74v7c0,3.83-3.38,5.77-10,5.77H132.91q-.14,1.08-.27,2.1h47.59V102c0,7.46-8.06,11.24-23.95,11.24H130c-8.41-.62-12.75-3.67-12.89-9.07l0-.41.21-.36a6.81,6.81,0,0,1,5.63-3.33h-1.26c-1,0-3.19-.38-3.45-3.9V96c.17-3,.26-5.63.28-8h-4.08V75.57a8.93,8.93,0,0,1-1.17.1h0c-.37,0-.72,0-1.05,0-.19,16.79-.9,21-1.53,22.57-1.6,8-5.39,13.13-11.24,15.15l-1.83.63Zm30-6.3a5.56,5.56,0,0,0,4.39,1.71h20.75c12.88,0,12.88-5.37,12.88-7.13v-.26H123.68l.13,0C125.4,100.62,127.28,102,127.43,105.75Zm31.82-19.91a9.62,9.62,0,0,0,2.86-.29V84H120.66c-.34,0-1.08,0-1.32,1.82Zm-1.5-7.61V76.48a8.42,8.42,0,0,1-1.26.12h0a12.26,12.26,0,0,1-1.78-.12,7,7,0,0,1-2.46,1.75Zm-18.95,0a6.17,6.17,0,0,1-3.87-5.44V71.24a7.52,7.52,0,0,1-2,.25,7,7,0,0,1-2.49-.41v1.06a5.29,5.29,0,0,0,1.47.16h1.5v4.48h-14a1.67,1.67,0,0,0,1.44,1.45Zm23.1-4.14.12,0V74Zm11,0,0-.07v0Zm-60.72-6.56c.07-.73.13-1.6.15-2.65a2.37,2.37,0,0,0-.67-.15l-1.37-.12V64a6.49,6.49,0,0,1-3.43,2.35H107c1,0,2.22-.06,3.58-.18l1.63-.14Zm18.18-7.57.58-.22c-.2-.34-.4-.7-.58-1.07Zm-11.8-.11.82-.08v-.19ZM162,59.16l-1.37.46,1.37-.09Zm15-.22a17.22,17.22,0,0,1-2.8-5.13c-.44.24-.89.48-1.36.71v4.42Zm-26.45-1.21v-1c-.43-.18-1.66-.52-4.93-.56h-1.92c-4.47.14-5,1-5,1l-.22.51Zm-11.75-8c0,.58,1.54,1.23,4.92,1.28h1.83c3,0,5-.54,5-1.38V48.5c-.43-.19-1.66-.52-4.93-.57h-1.92c-3.48.11-4.58.67-4.9.92Zm15.86.3a11.56,11.56,0,0,0,2.78-1h-.2A2.15,2.15,0,0,1,155,46.87c-.07-.82-.15-1.69-.25-2.62V50Zm-27-2.25c-.7.62-1.42,1.21-2.17,1.78.82-.08,1.61-.18,2.36-.3C127.85,48.73,127.78,48.23,127.73,47.73Zm45-1.13c-.81.78-1.66,1.52-2.56,2.23a22.23,22.23,0,0,0,2.76-.76C172.81,47.59,172.74,47.1,172.68,46.6Zm-13.26,1.11.39-.31-.29.15ZM134,42.92a16.07,16.07,0,0,0,.65,3.42V42.92Zm4.86-1.5c0,.58,1.54,1.23,4.92,1.28h1.83c3,0,5-.54,5-1.37v-.76a17.25,17.25,0,0,0-3.74-.44h-4.5a14.9,14.9,0,0,0-3.51.56Zm-15.05-6a23.67,23.67,0,0,1-1.76,1.71c.66-.1,1.33-.21,2-.34a9.49,9.49,0,0,0,.48-1,.23.23,0,0,0,0-.1Zm43.5.66-.6.65.32,0Z"/><path class="cls-3" d="M170.85,26h0m0,0a22.16,22.16,0,0,1-2.42,5.84h11.79a30.4,30.4,0,0,1-3.81,7.8h.75q.65,6.77,3.89,8.07-.47,5.84-.74,12.15-3.52-2.31-5.2-8.35a26.51,26.51,0,0,1-3.71,2v6.87h8.72v1.39c-1.29.06-1.94.43-1.94,1.11q.18,8.36.83,11,2,0,2-1c0-1.12.59-1.67,1.76-1.67s1.67.83,1.67,2.32q-.55,2.6-6.21,2.6c-3.16-.56-5.44-3.9-6.87-10v8.07c0,1.17,1.39,1.76,4.18,1.76v1.58H159.25V75.93c2.84,0,4.27-.59,4.27-1.76v-7q-2,7.79-7.05,7.88a9.56,9.56,0,0,1-2.42-.27q-1.76,3.06-8.72,3.06-8.54,0-8.9-5.2V68.51A4,4,0,0,1,132.9,70q-3,0-4-2.22V72.4c0,.93,1,1.4,3,1.4v1.48h-14V73.8c2,0,3.06-.47,3.06-1.4V64.7q-1.84,9.38-7.7,9.47a7.53,7.53,0,0,1-2.5-.37q-.2,21.24-1.48,23.93Q107,109.15,99,111.93q-.84-10.22-1.77-20.6h1.95c.13,1.18,1.12,1.76,3,1.76q4.08-1,4.92-25.23c1,0,2.29-.06,3.71-.19v2a1.47,1.47,0,0,1,.37.93c0,.43-.12.71-.37.83q0,.75.93.93,2-.09,2.22-7.42c0-1-.68-1.55-2-1.67V61.64a73.36,73.36,0,0,0,9.09-.55V57.47c-1.79.62-3.68,1.24-5.65,1.85q-.28.1-.84,1a.74.74,0,0,1-.74.37c-.74,0-1.11-.24-1.11-.74q-.75-3.7-1.67-8.07,7.32-1.11,12.33-10.11-4.26,2.41-10.57,5.29c-.31.74-.68,1.11-1.12,1.11s-.74-.19-.74-.56a60.9,60.9,0,0,0-.83-6.77,5.74,5.74,0,0,1-5.11,2.32q-5.66,0-6.4-6.31,0-5.84,6.4-6.68,6.23.38,6.22,6.22a8,8,0,0,1-.28,2.32c2.79-.68,4.73-3.84,5.85-9.47,0-.92-.81-1.42-2.42-1.48V26h13.18A20.6,20.6,0,0,1,116.3,39a41.77,41.77,0,0,0,8.72-.93,13.3,13.3,0,0,0,1-2.14,1.64,1.64,0,0,0-1.12-1.76V32.7h11a1,1,0,0,1-.18.37c.18,1.73,1.7,2.75,4.54,3.06V29.54c0-1-1.33-1.48-4-1.48V26.3h16.42v1.76c-2.66.06-4,.56-4,1.48v6.68q4.83-.55,4.83-3.89h1.3v9h-1.3q0-2.51-6.59-2.7h-4.54q-5.94.38-6.68,2.79h-1.3v-5.1a31.53,31.53,0,0,1-3.62,5.93h1.67q.47,6.31,2.87,7.42-.27,5.67-.64,11.51a3.34,3.34,0,0,1,1.76,1.2V59.23h18.18V72.4q2.5-.74,2.78-8.07c0-1-.61-1.51-1.85-1.57V61.27q4.17,0,8-.37V57c-1.43.56-2.94,1.09-4.55,1.58-.18.06-.43.43-.74,1.11a.88.88,0,0,1-.74.38c-.74,0-1.12-.25-1.12-.75-.68-2.35-1.42-4.91-2.22-7.7q7-1.11,11.78-9.37c-2.1,1.3-4.61,2.69-7.51,4.18-.32.68-.69,1-1.12,1s-.83-.22-.83-.65c-.19-2.41-.53-5.23-1-8.44q3.7,0,5.1-9.1c0-.92-.87-1.42-2.6-1.48V26h12.9m-9,12.52a34.72,34.72,0,0,0,6.21-.55c.37-.81.75-1.61,1.12-2.42a1.8,1.8,0,0,0-1.49-1.94v-.56a16.41,16.41,0,0,1-5.84,5.47m2.41,12.34A26.32,26.32,0,0,0,174.56,49q-.47-2.7-.74-5.85a32.65,32.65,0,0,1-9.56,7.7m-44.16.37a47.88,47.88,0,0,0,9.56-.83,35,35,0,0,1-.65-6,34.94,34.94,0,0,1-8.91,6.86m8.81,11.88a5.22,5.22,0,0,1,4-2.32,3.61,3.61,0,0,1,.84.09,15.45,15.45,0,0,1-3.53-7.51c-.43.24-.87.46-1.3.65v9.09m16.42,12.8c.81,0,1.21-1.21,1.21-3.62V61.92h-2.41V72.4c0,2.35.4,3.53,1.2,3.53M127.43,26h0m52.79,5.84h0m-44.35.84h0m17.34,8.63V48.1h-1.11c0-1.05-2.14-1.61-6.4-1.67h-2q-5.67.18-6.4,2h-1.21v-7h1.21q0,2.69,6.4,2.78h1.85q6.49,0,6.5-2.87h1.11m0,8.25v6.77h-1.11c0-1.05-2.14-1.6-6.4-1.67h-2q-5.67.2-6.4,2h-1.21v-7h1.21q0,2.7,6.4,2.79h1.85q6.49,0,6.5-2.88h1.11M104,51.81q6.5.38,6.49,6.4,0,7-6.49,7.05-5.85,0-6.78-6.59,0-6,6.78-6.86m13.82,24q0,3.33,2.88,3.89h54.18V86q0,4.27-8.54,4.27H131.6c-.24,1.79-.46,3.49-.65,5.1h47.78V102q0,9.73-22.45,9.74H130.12q-11.33-.84-11.5-7.61c.86-1.54,2.44-2.41,4.73-2.59q2.59.83,2.59,4.73c1.18,1.73,3.13,2.62,5.85,2.69h20.78Q167,109,167,100.33V98.57H121.68c-1.18,0-1.83-.84-2-2.51.18-3.28.28-6.18.28-8.72h39.24c2.91,0,4.36-.46,4.36-1.39V82.52h-43q-2.7.09-2.88,4h-1.86V75.84h1.86m57-52.82H155v.28H133.24v6.4h-4a28.15,28.15,0,0,0,1-2.76L131.55,23h-20.3v6.4a10.18,10.18,0,0,0-6.19-2.22l-.28,0-.28,0c-5.73.74-9,4.26-9,9.65v.18l0,.17c.67,5.7,4.09,9,9.38,9a11,11,0,0,0,2.78-.33c.07.66.13,1.3.16,1.91a3.64,3.64,0,0,0,.39,1.52l-.78.12a13.19,13.19,0,0,0-3.3-.59h-.27l-.27,0c-6,.74-9.41,4.33-9.41,9.84v.21l0,.21c.82,5.83,4.37,9.17,9.75,9.17h0c-.43,12-1.42,17.51-2.18,20.07H93.91l.29,3.27c.63,7.06,1.22,14,1.76,20.57l.31,3.85,3.66-1.26c6.36-2.19,10.47-7.63,12.2-16.15.46-1.21.89-3.51,1.2-9.1H117c0,1.93-.13,4.07-.26,6.38v.2l0,.19a6,6,0,0,0,1.52,3.88,7.43,7.43,0,0,0-2.26,2.51l-.41.72,0,.82c.11,4.33,2.69,9.67,14.28,10.52h26.38c16.89,0,25.45-4.29,25.45-12.74V92.41h-8.86c4-1.36,5-4,5-6.37V80.51h.74v-1.4c5.17-.06,8.15-1.73,8.84-5l.06-.31v-.32c0-3.74-2.42-5.2-4.5-5.32h-.17a6,6,0,0,0-1.43.17c-.06-1-.11-2.19-.15-3.59l1,0,.84.56,0-.6h0v-.54l.19-4.14c.18-4.19.43-8.24.73-12l.18-2.2-2.06-.82c-.74-.3-1.67-1.92-2-5.57h0a34.22,34.22,0,0,0,2.93-6.58l1.28-3.93H173.11c.23-.66.44-1.35.63-2.06l1-3.78Zm-3.92,0h0Zm-35,6.68ZM113,31.58a8.54,8.54,0,0,0-.55-.87l.79,0q-.12.44-.24.84Zm30.81,17.85h2.61l-.81,0h-2.29l.49,0Zm-16,52.14h36c-.4,1.83-2.28,4.39-11.28,4.39H131.83a4.57,4.57,0,0,1-2.94-.85,8.58,8.58,0,0,0-1-3.54Z"/><path class="cls-6" d="M230.59,113.43c-3.62,0-6-1.89-6.58-5.32l0-.31.07-.31a6.31,6.31,0,0,1,1.85-3.26,22.7,22.7,0,0,1-8-2.72c-4.86,7.1-11.3,11-19.17,11.72h-.13c-6.32,0-8.28-3.28-8.81-6l-.07-.38.12-.36c1-3.17,3-4,4.56-4.1l.35,0,.32.13a4.12,4.12,0,0,1,2.8,4c0,.24,0,.6,1.26.63,4.32-1.34,7.8-5.31,10.33-11.82-5-4.8-9.94-11.48-14.76-19.88l-.31-.53.16-.59c2.47-9.57,4.38-17.76,5.67-24.38H199a4,4,0,0,0-2.13,3.5l-.08,1.41h-5.52V38.43h5.55l.05,1.45c.09,2.61.68,3.93,1.75,3.93h2.62A73.79,73.79,0,0,0,202.28,33c0-.81-.83-1.49-2.48-2l-1-.33V25.82h1.5a101.37,101.37,0,0,0,14.24-.73l.11,0h.12a2.5,2.5,0,0,1,2.8,2.53c0,1,0,1.86-.1,2.48v.13c-.12.58-.24,1.19-.35,1.82a83.41,83.41,0,0,1-1.87,11.78H229l0,1.53c-.06,3.63-.18,7.21-.36,10.72h4.63v1.5c0,2,.75,4.4,6.6,4.53h4.11c.29-6.24.46-12.39.48-18.31-9.69-.52-14.25-2.32-14.74-5.77l0-.15V37.7a5,5,0,0,1,4-4.88l.18,0H234c3.63,0,3.91,2.36,3.91,3.08a5,5,0,0,0,.12,1.28A36.88,36.88,0,0,0,251,34.46c5.21-2.14,7.86-4.7,7.86-7.61V24.59l2.09.88c4.39,1.86,9,3.92,13.69,6.15l1.67.79-1.11,1.47c-3.85,5.09-9.61,8.25-17.13,9.4.09,6.32.38,12.63.89,18.81h5.21c5.74,0,6.48-2.92,6.48-5.46v-1.5h5.13v18h-5.13v-1.5c0-.93,0-3.39-6.28-3.69H259.5c.28,3.09.6,6.15,1,9.11,4.21,20.26,7.47,26.71,9.47,28.55l.12.11.09.13a.59.59,0,0,0,.4.24,6.36,6.36,0,0,0,.12-1.42v-.44l.24-.37a5.11,5.11,0,0,1,3.88-2.44l.13,0H275c2.66.18,4.18,1.91,4.18,4.74,0,2.45-1.08,6.59-8.32,6.79-8.68-.24-15-8.67-19.16-25.72-3.94,17.27-11,26.07-21.13,26.19h0Zm1.5-6.29c1.94-.49,6.36-4.92,11.11-32.22.15-2.32.28-4.65.39-7h-3.73c-5.92.64-6.5,3.12-6.69,3.94l-.27,1.16h-4.73V62.49q-.69,8.91-1.94,17.1a73.62,73.62,0,0,1-4.7,15.24,17,17,0,0,0,4.5,3.33c.22-.06.37-.3.37-1.17v-.55l.36-.42A6,6,0,0,1,231,94.1l.35,0,.32.13c1.54.59,3.37,2,3.37,5.48v.21a5,5,0,0,1-4.29,4.35,2.91,2.91,0,0,1,.68,1.2,6.11,6.11,0,0,1,.56,1.64ZM207.78,71.28c1.77,4,3.5,7.67,5.18,10.83,1.07-7.32,1.62-18.12,1.66-32.23h-.87C212.21,55.74,210.21,62.93,207.78,71.28Z"/><path class="cls-3" d="M214.73,26.57c.86,0,1.3.35,1.3,1a19.72,19.72,0,0,1-.1,2.32c-.12.62-.24,1.27-.37,1.95a91.3,91.3,0,0,1-2.22,13.45h14.1a251.23,251.23,0,0,1-2.69,34.05,69.63,69.63,0,0,1-5,15.77,18.43,18.43,0,0,0,6,4.55c1.42,0,2.13-.9,2.13-2.69a4.57,4.57,0,0,1,3.25-1.39q2.41.93,2.41,4.08c-.31,2.16-1.92,3.25-4.82,3.25a21,21,0,0,1-11.32-3.44q-7,11.24-18.83,12.25-6.41,0-7.33-4.82c.61-1.92,1.7-2.94,3.24-3.07a2.64,2.64,0,0,1,1.86,2.6c0,1.42,1,2.14,3,2.14q7.69-2.24,11.87-13.73Q203.51,87.71,196,74.63q4.08-15.76,6-26.25h-3.43a5.55,5.55,0,0,0-3.25,4.91h-2.6V39.93h2.6q.18,5.39,3.25,5.38h3.89A78.87,78.87,0,0,0,203.78,33c0-1.55-1.17-2.69-3.52-3.44V27.32a101.28,101.28,0,0,0,14.47-.75m1.39,21.81h-3.53q-2.4,9.27-6.4,23a139.18,139.18,0,0,0,7.52,15.13q2.41-11.15,2.41-38.13m44.25-21.53Q267,29.64,274,33q-5.76,7.6-17.44,9,.09,11,1,21.62h6.59q8,0,8-7h2.13v15h-2.13c0-3.21-2.57-5-7.7-5.19h-6.59Q258.34,72,259,77.32q5.19,25.05,9.93,29.41a2.41,2.41,0,0,0,2.13.93c.74-.06,1.12-1,1.12-3a3.62,3.62,0,0,1,2.78-1.76q2.78.18,2.78,3.24,0,5.11-6.86,5.29-13.28-.37-19.21-31.73-5.1,32-21.06,32.2c-2.91,0-4.61-1.37-5.1-4.09a4.31,4.31,0,0,1,2.41-3.15c1.24,0,1.95.43,2.14,1.3a4.75,4.75,0,0,1,.55,1.85,3.1,3.1,0,0,0,1.3.84q7.05-.47,12.8-33.59c.19-3,.34-5.84.47-8.62h-5.38q-7,.73-8.07,5.1h-2v-14h2q0,5.85,8.07,6h5.56q.56-11,.56-21.24-14.19-.57-14.75-4.55A3.51,3.51,0,0,1,234,34.27c1.6,0,2.41.53,2.41,1.58,0,1.73.37,2.66,1.11,2.78a37.84,37.84,0,0,0,14-2.78q8.81-3.62,8.81-9M227.44,45.31h0m29.93-23v4.52c0,2.79-3.78,4.92-7,6.23a35.94,35.94,0,0,1-11,2.5c-.12-2-1.58-4.31-5.4-4.31h-.36l-.35.09a6.48,6.48,0,0,0-5.16,6.25l0,.3,0,.3c.7,5,7.45,6.49,14.71,7,0,5-.17,10.17-.41,15.4h-2.67c-5.1-.12-5.1-1.94-5.1-3v-3h-4.55q.21-4.53.28-9.2l0-3H217a77.74,77.74,0,0,0,1.52-10.1c.11-.59.22-1.16.33-1.7l0-.14,0-.13a26.49,26.49,0,0,0,.11-2.65,4,4,0,0,0-4.3-4h-.24l-.23,0a99.58,99.58,0,0,1-14,.71h-3v7.42l2.09.66a4.32,4.32,0,0,1,1.43.68,68.26,68.26,0,0,1-.86,9.23h-1.16a6.49,6.49,0,0,1-.42-2.48l-.1-2.9h-8.5V56.29h7.6c-1.14,5.18-2.57,11.06-4.26,17.59l-.3,1.18.61,1.07a93.92,93.92,0,0,0,14.29,19.5c-2.18,5.21-5,8.5-8.4,9.81a5.62,5.62,0,0,0-3.66-4.37l-.65-.26-.7,0c-1.62.13-4.53,1-5.87,5.14l-.23.73.14.75c.52,2.71,2.55,7.26,10.28,7.26h.26c7.93-.69,14.48-4.48,19.5-11.28a24.36,24.36,0,0,0,4.9,1.8,9.08,9.08,0,0,0-.68,1.89l-.14.62.11.62c.75,4.16,3.69,6.55,8.05,6.55,9.75-.12,16.85-7.48,21.19-21.94,4.38,14.19,10.64,21.24,19,21.47h.17c8.83-.24,9.78-5.87,9.78-8.29,0-3.62-2.14-6-5.58-6.24h-.26l-.25,0a6.62,6.62,0,0,0-4.9,3c-1.72-2.89-4.4-9.77-7.79-26.09-.29-2.4-.56-4.86-.79-7.36h3.23c4.78.24,4.78,1.71,4.78,2.19v3h8.13v-21h-8.13v3c0,2.09-.39,4-5,4h-3.83c-.4-5.29-.65-10.66-.75-16.05,7.29-1.37,12.94-4.64,16.8-9.75l2.23-2.95-3.34-1.58C270.58,28,266,26,261.54,24.09l-4.17-1.76Zm-48,48.85c1.35-4.67,2.57-9,3.65-12.87-.15,7.39-.47,13.64-1,18.7-.88-1.82-1.78-3.77-2.68-5.83Zm30.56-1.71H242c-.09,1.75-.19,3.52-.3,5.27-1.94,11.12-3.8,18.25-5.38,22.81a6.48,6.48,0,0,0-4.1-4.75l-.64-.25-.69.06a7.42,7.42,0,0,0-5.29,2.44l-.63.75a15.67,15.67,0,0,1-1.65-1.34A78.32,78.32,0,0,0,227.69,80v-.15c.27-1.73.51-3.48.74-5.25h5.64l.54-2.32c.35-1.49,2.13-2.43,5.31-2.78ZM224.87,97.4Z"/><path class="cls-6" d="M366.86,114.26v-1.5c0-1.75-2.2-2.71-6.53-2.86H328.75c-4,.2-6.62,1.07-7,2.37l-.32,1.06H317v-.27H297.75v-5.23h1.5c2.38,0,2.58-1,2.58-2.12V58.56c-.24,8.57-.66,16.51-1.28,23.71C299.55,93.34,295.64,99,289,99h-.11c-5.57-.41-6.4-4.08-6.4-6.23v-.4l.2-.34a7.34,7.34,0,0,1,2.66-2.68l.36-.21h.41a4.22,4.22,0,0,1,3.12,1.16c0-.23,0-.46,0-.71.25-6.57.37-20.5.37-41.44,0-.67,0-1.91-2.84-2.22l-1.33-.15V40.57h16.42v-6.2c0-.79,0-2.27-3.38-2.4L297,31.91V26.47h22.3V32h-1.5c-1.18,0-2.45.31-3.05,2.58V46.69c1-2,3-3.8,7-4.26H322a9.22,9.22,0,0,1,4.66,1.31,85,85,0,0,1-4.28-10l-.09-.24V31l.15-.31a3.21,3.21,0,0,1,2.22-1.73l.17,0h42.38a3.85,3.85,0,0,1,3.64,2l.17.34v1.91l-.07.22a56.16,56.16,0,0,1-17,26.12c3.94,3.42,7.63,5.64,11,6.62a9.59,9.59,0,0,0,1-.06v-.68h.37V64.27l.44-.44a5.93,5.93,0,0,1,3.69-1.64h.16c2.85,0,4.56,1.54,4.56,4.1,0,4-2.38,6.23-6.7,6.23a37.88,37.88,0,0,1-11.86-1.89v4.16l-1.44,0c-2.69.1-3.54.53-3.75.68v7.55H355c8.06,0,8.06-3.29,8.06-4.53V77H368V93.57h-4.95v-1.5c0-1.47-3-2.43-7.92-2.58h-3.83v14.35h8.89c5.9,0,6.66-2.47,6.66-4.62v-1.5h4.95v16.54Zm-52.11-8.46c0,.49,0,1.48,2.29,2V99.39h4.76v1.5c0,1.9,2.35,2.9,7,3h8.6V89.49h-5.27c-4.78.26-7.77,1.29-8.33,2.89l-.35,1H319V78h4.86v1.5c0,2.28,2.78,3.49,8.27,3.6h5.24V75.38h0s-.65-.55-3.6-.55h-1.5V71.61a44.39,44.39,0,0,1-9.91,1.09c-2.11,0-5.72-.85-6.23-6.56V66l0-.16c.16-1.24.92-3.36,4.2-3.71h.16a4.37,4.37,0,0,1,4.62,3.58l0,.16s0,.29,0,.34h1.09c3.37,0,7.47-2.34,12.19-6.81a69.55,69.55,0,0,1-6.49-7q-1.23-1.64-2.4-3.48a10.65,10.65,0,0,1,.06,1.15c0,5.33-2.74,8.27-7.72,8.27-2.57,0-5.64-.86-7.13-4.51ZM354,69.7a43.19,43.19,0,0,1-8-4.27,38.84,38.84,0,0,1-7.75,4.27ZM338.24,36.15a46.08,46.08,0,0,0,7.66,15.14c.29-.36.57-.72.83-1.1a48.73,48.73,0,0,0,7.33-14Z"/><path class="cls-3" d="M317.8,28v2.5q-3.62,0-4.55,3.9V105.8c0,1.92,1.33,3.09,4,3.53v2.22h-18v-2.22q4.08,0,4.08-3.62V34.37q0-3.72-4.83-3.9V28h19.3m49.36,2.41a2.39,2.39,0,0,1,2.31,1.2v1.3a54.28,54.28,0,0,1-17.9,26.54q7.05,6.49,13.08,8.16c1.79,0,2.69-.25,2.69-.74.25,0,.37-.65.37-2a4.5,4.5,0,0,1,2.79-1.21c2,0,3.06.87,3.06,2.6,0,3.16-1.74,4.73-5.2,4.73A38,38,0,0,1,346,63.59a38.24,38.24,0,0,1-23.65,7.61q-4.28,0-4.74-5.2c.19-1.42,1.15-2.22,2.88-2.41A2.89,2.89,0,0,1,323.64,66a2.48,2.48,0,0,0,.38,1.67h2.22q6.12-.09,14.38-8.35a64.45,64.45,0,0,1-7.51-7.88,69.23,69.23,0,0,1-9.37-18.19V31.31a1.66,1.66,0,0,1,1.2-.93h42.22M356,34.65H336.26A47.88,47.88,0,0,0,345,52.55q.47.56.93,1a26.53,26.53,0,0,0,2-2.5q6.21-8.64,8.07-16.42m-55.48,7.42q0,22.64-1.48,40.08-1.4,15.3-10.11,15.3-5-.36-5-4.73a5.8,5.8,0,0,1,2.13-2.13,2.68,2.68,0,0,1,2.32,1c.37,1.92.9,2.87,1.58,2.87.43-.3.68-1.94.74-4.91q.38-9.84.37-41.47c0-2.17-1.39-3.4-4.17-3.71V42.07h13.63m21.34,1.85q6.21.28,6.22,6.13,0,6.77-6.22,6.77-5.65,0-6.4-6.31,0-5.85,6.4-6.59M355,71.2v2.13q-5.19.19-5.19,2v9.19H355q9.56,0,9.56-6h1.95V92.07h-1.95q0-3.79-9.37-4.08h-5.38v17.35H360.2q8.16,0,8.16-6.12h1.95v13.54h-1.95q0-4.08-8-4.36H328.75q-7.51.38-8.45,3.43h-1.76V100.89h1.76q0,4.35,8.45,4.45h10.11V88h-6.77q-8.54.47-9.74,3.9h-1.86V79.46h1.86q0,4.91,9.74,5.1h6.77V75.37q0-2-5.1-2V71.2H355M320.8,25H295.5v8.39l2.89.11c1.94.07,1.94.49,1.94.9v4.7H283.91v8l2.66.3a2.88,2.88,0,0,1,1.48.43,1,1,0,0,1,0,.3c0,19.29-.1,32.62-.31,39.7a6.65,6.65,0,0,0-1.7-.21h-.83l-.71.43a8.87,8.87,0,0,0-3.2,3.21l-.39.7v.79c0,4.48,2.91,7.36,7.79,7.73H289c4,0,8.76-1.83,11.38-9.38v14.64a1.8,1.8,0,0,1-.05.48,2.77,2.77,0,0,1-1,.14h-3v8.22h19.29v.28h7l.65-2.13h0s.85-1,5.64-1.3h31.51c3.66.13,5,.9,5,1.36v3h7.95V96.22h-7.95v3c0,1.24,0,3.12-5.16,3.12h-7.39V91h2.33c4.72.15,6.11,1,6.42,1.21v2.87h7.95V75.53h-7.95v3c0,.9,0,3-6.56,3h-2.19v-5a14.62,14.62,0,0,1,2.3-.23l2.89-.1V72.64A39.61,39.61,0,0,0,368.36,74c5.13,0,8.2-2.89,8.2-7.73,0-3.4-2.38-5.6-6.06-5.6h-.16l-.16,0a7.39,7.39,0,0,0-4.59,2.07l-.88.88v.19h-.37v.5a29.09,29.09,0,0,1-8.18-4.91,57.78,57.78,0,0,0,16.17-25.64l.14-.44V30.83l-.36-.67a5.31,5.31,0,0,0-4.95-2.78H324.61l-.32.07A4.7,4.7,0,0,0,321.05,30l-.25.5h0V25Zm-4.55,9.78c.38-1.28.93-1.28,1.55-1.28h2.94v.31l.18.49c.86,2.4,1.78,4.68,2.75,6.82a14.2,14.2,0,0,0-1.65-.16h-.24l-.24,0a11.85,11.85,0,0,0-5.29,1.82v-8Zm24.05,2.9H352a49.36,49.36,0,0,1-6.07,11.12,44.62,44.62,0,0,1-5.6-11.12ZM321.88,59.82c4.67,0,7.82-2.39,8.85-6.55v0l0,0a70.92,70.92,0,0,0,5.46,6c-3.82,3.38-7.19,5.21-9.86,5.33a5.85,5.85,0,0,0-5.89-4.08h-.16l-.16,0a6.55,6.55,0,0,0-3.92,1.69V58.14a9.33,9.33,0,0,0,5.63,1.68Zm22.68,8.38c.5-.31,1-.63,1.49-1,.51.33,1,.65,1.55,1ZM316.25,97.89V71.25a7.31,7.31,0,0,0,6.1,3,46.16,46.16,0,0,0,8.41-.75v2.88h3a13,13,0,0,1,2.1.14v5.09h-3.74c-3.28-.07-6.77-.65-6.77-2.1v-3h-7.86V94.89h7l.71-2c.15-.43,1.69-1.59,7-1.89h3.69v11.35h-7.11c-3.19,0-5.45-.63-5.45-1.45v-3h-7.05Z"/><path class="cls-5" d="M449.17,113.61c-11.16,0-16.81-2.75-16.81-8.18.06-1.55.91-3.51,4.57-4.42l.2-.05h.21c2.55.09,4.16,1.7,4.41,4.43.11,2,.89,2.57,2,2.72,3.65,0,4.3-1.72,4.44-3.39V68.06H428.48c-6.51.32-7.28,1.64-7.35,1.79l-.39.9H417.9c-.21,2.77-.45,5.58-.73,8.39L417,80.77l-1.61-.3c-2.94-.55-5.07-3.15-6.48-7.91V82.87a8.13,8.13,0,0,1,4.6-2l.14,0h.15a7.59,7.59,0,0,1,4.45,1.52V70.9h29V92c0,5.61-5,8.46-14.85,8.46-8.49,0-13.2-2.55-14-7.56a6.68,6.68,0,0,1-4.62,1.53,6.35,6.35,0,0,1-4.81-1.85v10.65c0,2.55,1.07,3.6,3.69,3.6h1.5v6.52H391.45v-6.52H393c2.56,0,3.6-1,3.6-3.6V97.62c-2.12,6.25-6.22,9.4-12.23,9.4-4.14,0-6.51-2.2-6.51-6v-.42l.22-.36a5.64,5.64,0,0,1,3.64-2.73l.25,0,.24,0a4.13,4.13,0,0,1,3.47,2.76,46.6,46.6,0,0,0,.53-5.7c.06-2.78.09-5.55.09-8.19,0-.61,0-1.45-2-1.56l-1.42-.08V79.85l2.85-.26a2.66,2.66,0,0,1-.43-1.37c-.62-3.36-1.27-7.07-1.94-11l-.25-1.48,1.49-.25c4.39-.72,8.36-3.36,11.84-7.85q-3.67,2-8.11,4.34a3.23,3.23,0,0,1-2.75,1.76A2.26,2.26,0,0,1,383,61.52c-.25-3.42-.65-7.44-1.2-11.94l-.21-1.68h1.7c5.5,0,8.36-9.59,9.8-17.74a1.9,1.9,0,0,0-.77-.14L390.89,30V25.07H410l-.5,1.89a48.89,48.89,0,0,1-3.25,8.88h12.64V32.68h4.67v1.5c0,1.91,2.37,2.9,7.05,3h2.79c.26-1.7.49-3.52.68-5.44-.24-.57-1.43-1.34-4.16-1.89l-1.2-.25V24.8h24.9v4.73l-1.16.27c-1.31.3-2.88.87-3.1,1.85.14,2,.32,3.82.54,5.49h3.14c5.75,0,6.48-2.67,6.48-5v-1.5h5.23v17.2h-5.23v-1.5c0-.73,0-2.92-6.34-3.14h-2.29c1.52,6.81,3.86,10.85,7,12,.43-2.72,2-3.74,3.15-4.12l.23-.07h.23c4.78,0,5.3,2.8,5.3,4,0,.17,0,.35,0,.54h2.34V72.88H464v-1.5c0-.5,0-1.69-2-2.54v36.78c0,3.6-2.23,7.9-12.81,8ZM431.46,91.7c0,1.39.19,3,1.1,3,.38,0,1.38,0,1.38-3.14V77.43h-2.48ZM391.12,78.55c-.07.1-.18.27-.35.56l5.78-.59v-2C394.84,77.24,393,77.91,391.12,78.55ZM413.9,53l0,1.47c.1,4.54,1.09,7.85,2.94,9.84V58.47h.3a6.08,6.08,0,0,1-1-3l0-.18,0-.17c.21-1.35,1.1-3.64,4.73-3.87H421l.12,0a3.38,3.38,0,0,1,3.1,3.58,1.7,1.7,0,0,0,.37.7c3.28-1.61,5.84-5.75,7.62-12.33h-1.6c-4.07.2-6.62,1.07-7.12,2.44l-.36,1h-4.22V42.32A50.2,50.2,0,0,1,413,53Zm-6.7,6.87a49.16,49.16,0,0,1-5.11,4.37,36.47,36.47,0,0,0,5.32-.93C407.34,62.21,407.27,61.06,407.2,59.87ZM422,61.07c1.11.68,3.36,1.08,6.46,1.11h28.93a8.22,8.22,0,0,0,5-1.21,12.15,12.15,0,0,1-2.22.57l-.13,0h-.13c-8-.06-14.29-4.47-18.65-13.1-5.52,8.45-11.34,12.72-17.34,12.72A13.92,13.92,0,0,1,422,61.07ZM403.65,40.42a33.4,33.4,0,0,1-6.8,7.49c1.79-.11,3.58-.29,5.37-.53.86-1.94,1.66-4,2.39-6.19a1.15,1.15,0,0,0-.09-.46Z"/><path class="cls-3" d="M452.14,26.3v2c-2.66.62-4.09,1.7-4.27,3.24q.27,3.9.74,7.05h4.45q8,0,8-6.49h2.23v14.2H461q0-4.37-7.79-4.64h-4.18q2.51,13.26,8.82,15.12c1,0,1.48-.43,1.48-1.3a3.27,3.27,0,0,1,2.14-3q3.8,0,3.8,2.51c0,2.72-1.8,4.39-5.38,5q-12.26-.1-18.46-14.76-8.54,14.38-17.54,14.38-5.94,0-6.31-4.36c.25-1.6,1.36-2.47,3.34-2.59,1.18.12,1.77.89,1.77,2.32q.56,2,2,2,6.41-2.7,9.37-15.4h-3.53c-4.95.24-7.79,1.39-8.53,3.43h-1.67v-11h1.67q0,4.37,8.53,4.45h4.08c.38-2.16.68-4.51.93-7.05q-.37-2.22-5.38-3.24v-2h21.9m-44.07.27q-4.27,16.16-16.33,23a80.88,80.88,0,0,0,11.5-.83,73.62,73.62,0,0,0,2.88-7.33c0-1.12-.34-1.79-1-2v-2h14a49.2,49.2,0,0,1-9.19,17.16h2.51q.18,8.45,4.27,11.69-.37,6.32-1,12.8-4.46-.84-6.22-10.76c-.62.43-1.3.87-2,1.3v33.68q0,5.1,5.19,5.1v3.52H393v-3.52q5.1,0,5.1-5.1V74.26q-3.53,1.58-7.7,3a3.6,3.6,0,0,0-1,1.39,1.22,1.22,0,0,1-1.12.65c-1,0-1.48-.4-1.48-1.21q-.93-5.1-2-11.13Q394.34,65.35,401,53.2q-5.56,3.34-13.83,7.61c-.49.93-1.05,1.39-1.67,1.39s-1-.25-1-.74c-.24-3.47-.65-7.49-1.2-12.06q8,0,11.32-19.21c0-1.05-.75-1.6-2.23-1.67V26.57h15.68M396.75,66A42.49,42.49,0,0,0,409,64.43c-.19-2.48-.34-5.2-.47-8.17A47.63,47.63,0,0,1,396.75,66m22.36-28.66h0M467.63,57.1V71.38H465.5q0-3.52-5-4.54v38.78q0,6.39-11.32,6.49-15.32,0-15.31-6.68c.06-1.42,1.21-2.41,3.43-3q2.7.09,3,3.06c.12,2.48,1.27,3.84,3.43,4.09,3.77,0,5.79-1.61,6-4.83V66.56H428.48c-5.14.25-8,1.14-8.72,2.69h-1.39V60h1.39q0,3.62,8.72,3.71h28.94q8.07,0,8.08-6.58h2.13m-21.9,15.3V92q0,7-13.35,7-12,0-12.62-6.87V72.4h26M432.56,96.25q2.88,0,2.88-4.64V75.93H430V91.7q0,4.55,2.6,4.55M396.75,80c-.06,3.65-.19,7.46-.37,11.41q-1.77,14.1-12.06,14.1-5,0-5-4.54a4.16,4.16,0,0,1,2.69-2,2.71,2.71,0,0,1,2.32,2c.24,1.23.86,1.85,1.85,1.85.75-.37,1.24-3.12,1.49-8.25q.09-4.18.09-8.26,0-2.88-3.43-3.06v-2q6.21-.56,12.43-1.21m17,2.32q5.1.28,5.1,5.1,0,5.47-5.1,5.48-4.65,0-5.2-5.11,0-4.72,5.2-5.47m41.41-59h-27.9v7.49l2.4.49a9.36,9.36,0,0,1,2.9.95c-.12,1.18-.26,2.31-.42,3.4h-1.51c-3.19,0-5.53-.64-5.53-1.45v-3h-7.67v3.16H408.6a53.7,53.7,0,0,0,2.37-7l1-3.77H389.39V31.4l1.94.08c-1.87,9.51-4.77,14.92-8,14.92h-3.39l.41,3.36c.54,4.46.94,8.45,1.19,11.85a3.69,3.69,0,0,0,1.23,2.62l-1.42.23.5,3c.66,3.88,1.3,7.52,1.9,10.83l-2.4.21V86.1l2.83.15a3.79,3.79,0,0,1,.6.08c0,2.61,0,5.35-.09,8.14,0,.83-.09,1.56-.13,2.2a5.48,5.48,0,0,0-2.2-.71l-.5-.06-.48.11a7.13,7.13,0,0,0-4.6,3.41l-.44.72V101c0,4.72,3,7.54,8,7.54a14.84,14.84,0,0,0,5.63-1v7.35h25.66v-9.52h-3c-1.9,0-2.19-.48-2.19-2.1V95.33a9.08,9.08,0,0,0,3.31.58,9.38,9.38,0,0,0,3.72-.71c1.43,3.49,5.31,6.7,14.76,6.74a5.36,5.36,0,0,0-1.35,3.36v.13c0,6.42,6.16,9.68,18.31,9.68,11.84-.1,14.32-5.22,14.32-9.49V74.38h7.14V54.1h-2.4c-.39-2.35-2.31-4.55-6.72-4.55H461l-.44.14A5.81,5.81,0,0,0,457,53c-1.69-1.44-3.1-4.24-4.18-8.27h.37c.93,0,4.85.27,4.85,1.64v3h8.23V29.14H458v3c0,1.48,0,3.49-5,3.49h-1.81c-.13-1.14-.25-2.36-.34-3.64a5.38,5.38,0,0,1,1.91-.73l2.32-.54V23.3Zm-47.07,6.27Zm11,4.77h0Zm-1.28,13.79h6.35l.72-2s.69-1.11,5.3-1.42c-1.27,3.94-2.88,6.79-4.75,8.42a4.73,4.73,0,0,0-4.17-3.4l-.25,0h-.25a6.38,6.38,0,0,0-5.39,3v-.52q1.31-2,2.45-4.09ZM401.12,46l.11-.13-.05.12Zm30.33,14.67c3.33-1.83,6.54-4.94,9.68-9.34a24.22,24.22,0,0,0,9.17,9.34Zm-31.64,16Zm10.61,3.46V79a10,10,0,0,0,.76.83c-.26.09-.52.18-.76.29Zm30.76,20.73a11.55,11.55,0,0,0,5.54-3.25v7c-.07,1-.25,1.9-2.85,2-.39-.06-.56-.2-.61-1.23v-.14a6.43,6.43,0,0,0-2.07-4.37Zm-47.72,4.42a13.21,13.21,0,0,0,1.58-1.66c-.06,1.22-.4,1.59-1.58,1.66Z"/><path class="cls-5" d="M521.89,113.06v-5.23h1.5c3.23,0,3.79-.65,3.8-.66V98.4h-7.32c-2.75.17-6.26.85-6.8,3l-.28,1.13h-4c-1.07,3.8-4.69,7.33-14.48,7.33-12,0-14.54-5.55-14.59-10.2V75.08h29.44V87.14h4v1.5c0,1,0,3.54,6.79,3.7h7.28V90.59c-10.33-.93-15.63-4.38-15.77-10.26V63.39h45.49v16.9c0,5.91-5.39,9.37-16,10.3v1.75h9.36c5.9,0,6.66-2.48,6.66-4.63v-1.5h4.95v16.45h-4.95v-1.5c0-2.1-3.55-2.66-6.53-2.76h-9.49v8.79s.51.64,3.51.64h1.5v5.23ZM492.32,99.12c.09,3,.68,4.86,1.58,5.09,1.33-.09,2-1.8,2-5.09v-18h-3.59Zm32.47-19.45c.21,2.21,1.28,5.13,7.92,5.34C543,85,543,81,543,79.73V79.1H524.79ZM543,72.85v-3.4H524.79v3.4ZM481,74.09V60.36h-.18V47.93h-3.71V32.5h4.85V34c0,.9,0,3.18,5.44,3.62V30.71c-.22-.14-1.06-.5-3.51-.5h-1.5V25.07h22.95v5.11l-1.47,0c-2.44,0-3.29.39-3.54.54v6.7C502.74,37.1,504,36.29,504,35v-1.5h3.25v-8h4.85V27c0,.81,0,3.26,6.89,3.42h31.6c5.91,0,6.66-2.52,6.66-4.72v-1.5h5V40.69H560V52.83c0,3.86-2.15,8.6-12.44,9.29H521.9c-7.89-.13-12.5-3.06-13.71-8.7l0-.15v-7H504V44.84c-.2-.19-1.41-1-7.05-1.09h-8.24c-2.63.17-5.94.8-6.71,2.76h3.48V48c0,1.91,2.34,2.9,7,3h2.95c3.29,0,7.22-.47,7.22-2.68v-1.5h4.48V59.52h-4.48V58.14c-.25-.2-1.53-1-7.07-1.12H492.4c-5.77.29-6.83,1.69-7,2.29l-.26.83h.51v1.5c0,1.91,2.22,2.91,6.59,3h3.32c6.76,0,6.76-2.3,6.76-3v-1.5h4.58V73.53h-4.58V72s-.28-1.32-6.61-1.47h-3.49c-3.84.21-6.22,1.08-6.63,2.45l-.31,1.08ZM534.22,55.5V46.35h-.52V55.5Zm11.26-.56A2.72,2.72,0,0,0,547,52.18V46.35h-1.55ZM520.9,52.26a3.47,3.47,0,0,0,1.36,2.59v-8.5H520.9ZM557.23,40v-.82c0-2.11-3.56-2.72-6.55-2.86h-5.2V40Zm-23,0V36.33h-.52V40Zm-12,0V36.33H519c-4.08.31-6.55,1.31-7,2.8l-.25.88Z"/><path class="cls-3" d="M560.77,25.74V39.19h-2q0-4-8-4.36H544v6.68h14.47V52.83q0,7.05-11,7.79H521.9q-10.67-.18-12.24-7.51V41.51h14.1V34.83h-4.83q-7.42.56-8.35,3.9h-1.85V27h1.85q0,4.73,8.35,4.92h31.64q8.16,0,8.16-6.22h2M532.2,41.51h3.52V34.83H532.2v6.68M544,56.91q4.54-.64,4.55-4.73V44.85H544V56.91M532.2,57h3.52V44.85H532.2V57m-8.44-.09V44.85H519.4v7.52q.55,4.08,4.36,4.54M503.81,26.57v2.14q-5,.09-5,1.85V39.1q6.68-.37,6.68-4.08H507v9.74h-1.48c0-1.61-2.85-2.44-8.53-2.51h-8.26q-7.33.47-8.26,4.18h-1.85V34h1.85q0,5,8.26,5.19h.18V30.56q0-1.85-5-1.85V26.57h19.95M484,48q0,4.36,8.44,4.46h3q8.72,0,8.72-4.18h1.48V58h-1.48c0-1.54-2.85-2.38-8.54-2.5H492.4c-5,.25-7.83,1.36-8.44,3.34h-1.67V48H484m21.43,13.55V72h-1.58q0-2.77-8.07-3h-3.53q-7.14.38-8.07,3.53h-1.67v-11h1.67q0,4.36,8.07,4.46h3.34q8.26,0,8.26-4.55h1.58m50,3.34v15.4q0,7.89-16,8.91v4.64H550.2q8.16,0,8.16-6.13h1.95v13.45h-1.95q0-4-8-4.26h-11v10.29q0,2.15,5,2.14v2.22h-21v-2.22q5.28,0,5.28-2.14V96.9h-8.81q-7.33.46-8.26,4.17h-1.85V88.64h1.85q0,5,8.26,5.2h8.81V89.2q-15.58-1-15.77-8.91V64.89h42.49m-32.1,9.46h21.25V68H523.29v6.4m9.37,12.16q11.88,0,11.88-6.78V77.6H523.29v2.13q.56,6.49,9.37,6.78m-25-9.93v23.1q0,8.71-13.36,8.72-13,0-13.08-8.72V76.58h26.44m-13.82,29.13q3.61,0,3.62-6.59V79.64h-6.59V99.12c.13,4.15,1.12,6.34,3,6.59m70-83h-8v3c0,1.28,0,3.22-5.16,3.22H519c-2-.05-5.39-.37-5.39-1.92V24h-6.77v-.47H480.86V31h-5.28V49.43h3.71V61.86h.18V73.58h-1.3v26.1c.05,4.4,2.2,11.72,16.08,11.72,10,0,14.05-3.64,15.55-7.33H514l.56-2.27c.25-1,2.33-1.69,5.45-1.9h5.71v6.26a11.76,11.76,0,0,1-2.28.17h-3v8.22h27v-8.22h-3a11.84,11.84,0,0,1-2-.14V99.9h8c4.27.15,5,1.13,5,1.14h0a.55.55,0,0,1,0,.12v3h7.95V84.71h-5.93a9.56,9.56,0,0,0,1-4.42V61.89h-3c5.14-2.33,6.09-6.38,6.09-9.06V42.19h2.32V22.74Zm-62,9.12a15.72,15.72,0,0,1,2.07-.15l1.86,0V32h-3.25v3a.66.66,0,0,1,0,.14,2,2,0,0,1-.67.39V31.86Zm-18.37-.15h.43a12.93,12.93,0,0,1,2,.12v4.08c-2.44-.5-2.44-1.52-2.44-1.91V31.71ZM547,37.83h3.7a13.76,13.76,0,0,1,4.11.68H547v-.68Zm-27.93,0h1.71v.68h-5.62a17.11,17.11,0,0,1,3.91-.68Zm-30.26,7.42H497a32.36,32.36,0,0,1,4.14.27v2.76a.45.45,0,0,1,0,.12s-.89,1.06-5.71,1.06h-3c-3.19,0-5.44-.63-5.44-1.46V45.45c.56-.09,1.17-.15,1.83-.2ZM508.39,61h.18V58.08a11.5,11.5,0,0,0,4.63,3.81h-3.3V73.58h-1.51V61Zm-15.91-2.5h3a25.07,25.07,0,0,1,5.29.52v2.51c0,.34,0,.51-.51.78s-1.83.77-4.75.77h-3.34c-2.32,0-5.07-.43-5.07-1.46V59.56c.59-.32,2-.87,5.34-1ZM526.29,71h15.25v.4H526.29V71Zm-34,1.11h3.41a16.62,16.62,0,0,1,5.11.67v.85H487l0-.15c.07-.21,1.21-1.14,5.27-1.37Zm34.18,8.54h15c-.35,1.2-1.89,2.9-8.73,2.91-4.58-.16-5.84-1.65-6.24-2.91Zm-32.65,2h.59V99.12a11.51,11.51,0,0,1-.27,2.76,14,14,0,0,1-.32-2.8V82.64Zm16.79,3V84a9.82,9.82,0,0,0,.91,1.69Zm37.75,5.2a17,17,0,0,0,7-3.53v.4c0,1.25,0,3.13-5.16,3.13Zm-28.5,0c-5.26-.13-5.26-1.68-5.26-2.19v-.07a19.37,19.37,0,0,0,5.26,2.26Z"/></g></g></svg>