<svg xmlns="http://www.w3.org/2000/svg" xmlns:xlink="http://www.w3.org/1999/xlink" viewBox="0 0 714.11 138.75"><defs><style>.cls-1,.cls-4{fill:#040000;}.cls-1{stroke:#fff;stroke-miterlimit:10;stroke-width:5px;}.cls-2{fill:url(#未命名漸層_67);}.cls-3{fill:#fff;}.cls-5{fill:#231815;}.cls-6{fill:#b29d64;}</style><linearGradient id="未命名漸層_67" x1="70.63" y1="124.4" x2="70.63" y2="30.97" gradientUnits="userSpaceOnUse"><stop offset="0.19" stop-color="#5ec1c5"/><stop offset="0.51" stop-color="#2ea7e0"/><stop offset="0.92" stop-color="#02548a"/></linearGradient></defs><g id="圖層_2" data-name="圖層 2"><g id="圖層_1-2" data-name="圖層 1"><path class="cls-1" d="M120.16,49.05,131.9,37.43C112.54,2.49,73.82,2.46,71.13,2.5s-41.41,0-60.77,34.93L22.1,49.05,3.54,67.62l67.59,67.59,67.59-67.59Z"/><polygon class="cls-2" points="5.74 66.7 24.71 47.72 29.32 37.04 107.07 35.77 135.53 68 71.28 132.24 5.74 66.7"/><path class="cls-3" d="M106.4,37.28l27.07,30.65L71.28,130.12,7.86,66.7,26,48.58l4.33-10,76.09-1.25m1.33-3-1.38,0L30.26,35.53l-1.93,0-.77,1.78-4.11,9.52L5.74,64.58,3.62,66.7l2.12,2.12,63.42,63.42,2.12,2.12,2.12-2.12,62.19-62.18,2-2L135.72,66,108.65,35.3l-.92-1Z"/><path class="cls-4" d="M120.16,49.05,131.9,37.43C112.54,2.49,73.82,2.46,71.13,2.5s-41.41,0-60.77,34.93L22.1,49.05,3.54,67.62l67.59,67.59,67.59-67.59ZM90.58,68.86H82.51L85,63.49Zm-18.35-19L83.42,61.47,80,68.86h-7.8Zm-2.2,0v19h-7.8l-3.4-7.39ZM57.27,63.49l2.48,5.37H51.68Zm13.86,65.42h0L9.49,67.27l15-15.89L43.14,70,40,73.17h62.3L99.11,70l18.63-18.63,15,15.89L71.13,128.91Z"/><polygon class="cls-4" points="34.02 64.78 19.27 64.78 14.99 69.23 26.43 80.67 38.17 68.93 34.02 64.78"/><polygon class="cls-4" points="26.5 57.25 23.09 60.8 30.05 60.8 26.5 57.25"/><polygon class="cls-4" points="122.98 64.78 108.23 64.78 104.08 68.93 115.83 80.67 127.27 69.23 122.98 64.78"/><polygon class="cls-4" points="115.76 57.25 112.21 60.8 119.16 60.8 115.76 57.25"/><path class="cls-4" d="M37,76.69v.07a1.8,1.8,0,0,0,1.8,1.8h64.56a1.84,1.84,0,1,0,0-3.67H38.83A1.8,1.8,0,0,0,37,76.69Z"/><path class="cls-4" d="M71.91,80.67H34.79l-2.2,2.21L46.26,96.55,58.42,84.39,71.28,97.25,84.14,84.39,96.3,96.55,110,82.88l-2.2-2.21ZM46.17,89.16,41,84H51.31Zm25,0L66,84H76.27Zm25,0L91,84h10.27Z"/><polygon class="cls-4" points="78.77 90.82 71.08 98.51 63.4 90.82 54.18 90.82 46.52 98.48 50.76 102.76 58.93 94.59 71.08 106.74 83.23 94.59 91.4 102.76 95.65 98.48 87.99 90.82 78.77 90.82"/><polygon class="cls-4" points="86.05 103.1 78.98 103.1 71.08 111 63.18 103.1 56.12 103.1 71.01 118.53 86.05 103.1"/><path class="cls-5" d="M193.71,112.66c-21.77,0-32.46-3.94-32.67-12V73.39h66.08v27.19C227.12,108.71,216.2,112.66,193.71,112.66ZM176.47,100c.63,3.9,5.82,6,15.42,6.22,12.7,0,19.71-2.17,19.71-6.11V79.26H176.47ZM158.36,74.44c-2.21,0-3.08-1.22-3.16-2.42-.79-3.57-1.68-7.48-2.66-11.63l-.37-1.6,1.62-.23c10-1.45,18.1-9.93,24.21-25.21-.06-.37-.36-.9-1.82-1.26l-1.13-.29V26.44h21.87l-.68,2A55.85,55.85,0,0,1,173.46,57.6c14.14-.1,26.88-.59,38-1.46a47.48,47.48,0,0,1-5.29-17.45l-.2-1.67h7.57l.3,1.12c2.2,8.33,8.16,13,18.23,14.39l1.39.18-.09,1.4c-.37,5.64-.81,11.46-1.3,17.29l-.18,2-1.9-.8a37.46,37.46,0,0,1-14.52-10.43c-12.41,3.53-30.62,6.93-54.15,10.1a7.86,7.86,0,0,0-.51.81l-.06.09A2.75,2.75,0,0,1,158.36,74.44Z"/><path class="cls-3" d="M194.82,27.94h0m0,0Q187.88,48.27,168,59.12q26.25,0,45.93-1.67a44.47,44.47,0,0,1-6.31-18.93h4.73Q215.89,51.89,231.84,54q-.56,8.54-1.3,17.26A35.5,35.5,0,0,1,216,60.51Q197.23,66,160.59,70.9a4.18,4.18,0,0,0-1.11,1.48,1.26,1.26,0,0,1-1.12.56c-1.11,0-1.67-.37-1.67-1.11Q155.49,66.36,154,60q16-2.31,25.52-26.44,0-2.22-3-3V27.94h18.27m30.8,47v25.69q0,10.59-31.91,10.58-30.9,0-31.17-10.58V74.89h63.08m-33.76,32.84q21.24,0,21.24-7.61V77.76H175v22.36q1,7.25,16.89,7.61M199,24.94H173.55v8l2.27.56.43.13c-5.86,14.2-13.48,22.07-22.68,23.4l-3.24.47.75,3.19c1,4.11,1.85,8,2.63,11.51.19,1.91,1.65,3.7,4.65,3.7a4.6,4.6,0,0,0,1.18-.15v24.87c.09,3.37,1.89,8,10,10.7,5.56,1.88,13.47,2.8,24.2,2.8,15,0,34.91-1.41,34.91-13.58V73.71l.76.33,3.8,1.58.35-4.1c.5-5.84.94-11.66,1.3-17.31l.19-2.8L232.24,51c-9.4-1.26-15-5.6-17-13.29l-.59-2.23H204.25l.4,3.35a50.46,50.46,0,0,0,4.41,16c-9.23.66-19.56,1.07-30.84,1.23a56.9,56.9,0,0,0,19.44-27.13l1.36-4Zm-4.19,0Zm0,6h0Zm-19.93,41c16.69-2.54,30.11-5.21,40-8a37.71,37.71,0,0,0,10,8ZM178,80.76H210.1v19.36c0,2.23-4.78,4.6-18.21,4.61-4.91-.12-13.13-.91-13.92-4.85V80.76Z"/><path class="cls-5" d="M247.79,111.65c-.54-6.59-1.13-13.51-1.76-20.58l-.15-1.63h4.94l.14,1.34c0,.32.76.39,1.21.41.54-.35,3-3.08,3.68-23.78l0-1.15a11.6,11.6,0,0,1-1.6.11C251,66.37,247,65,246,58.49v-.21c0-3.36,1.4-7.53,8.09-8.35l.13,0h.14a9.23,9.23,0,0,1,5.39,1.82l-.32-1.48L261,50a13.17,13.17,0,0,0,7.75-4.4q-2.17,1.07-4.65,2.21a2.5,2.5,0,0,1-2.22,1.47,2.06,2.06,0,0,1-2.24-2.06c-.08-1.16-.21-2.46-.4-3.85a8.46,8.46,0,0,1-4,.9c-3.19,0-7.15-1.33-7.89-7.64v-.17c0-3.27,1.34-7.34,7.71-8.17l.14,0h.14c4.69.28,7.38,2.79,7.61,7.09A16.18,16.18,0,0,0,265.44,29a3.31,3.31,0,0,0-.91-.12l-1.44-.06V24.12h16.74l-.64,2a26,26,0,0,1-2,4.71h11.14l-.69,2.06a2.2,2.2,0,0,0,1.47,1.06V29.45a7.2,7.2,0,0,0-2.49-.29h-1.5V24.4H304.5v4.73l-1.47,0a8.19,8.19,0,0,0-2.52.33V34c1.82-.58,1.82-1.59,1.82-2.07v-1.5h4.3v5.73c1.13-.83,2.09-3.32,2.71-7.12a4.12,4.12,0,0,0-1.11-.15l-1.44-.06V24.12h16.35l-.51,1.9A26.85,26.85,0,0,1,321.24,30h11.38l-.64,2a32.84,32.84,0,0,1-3,6.7l0,.49c.26,2.67,1,6,3,6.82l1,.41-.09,1.1c-.3,3.83-.55,7.9-.74,12.1L332,62.19l-.07,0v.72l-1.43.07A2.74,2.74,0,0,0,330,63c.09,3.56.23,6,.4,7.58a3.11,3.11,0,0,1,2.73-1.27c.81,0,3.17.44,3.17,3.82v.16l0,.16c-.54,2.51-3.13,3.78-7.69,3.78h-.13l-.13,0a7,7,0,0,1-.93-.23v1.64h-.74v7c0,3.83-3.38,5.77-10,5.77H283.25q-.15,1.06-.27,2.1h47.59v8.09c0,7.45-8.06,11.24-23.95,11.24H280.34c-8.4-.62-12.74-3.67-12.89-9.06v-.41l.2-.36a6.81,6.81,0,0,1,5.64-3.34H272c-.95,0-3.18-.38-3.44-3.89v-.2c.16-3,.25-5.63.27-8h-4.08V75.18a7.49,7.49,0,0,1-1.17.09h0c-.37,0-.71,0-1,0-.2,16.78-.9,21-1.53,22.56-1.61,8-5.39,13.14-11.25,15.16l-1.83.63Zm30-6.29a5.5,5.5,0,0,0,4.39,1.7h20.75c12.88,0,12.88-5.36,12.88-7.12v-.27H274l.13,0C275.73,100.22,277.61,101.62,277.77,105.36Zm31.81-19.91a9.72,9.72,0,0,0,2.87-.29V83.62H271c-.33,0-1.07,0-1.31,1.83Zm-1.5-7.61V76.08a8.41,8.41,0,0,1-1.25.12h0a12.36,12.36,0,0,1-1.78-.12,7,7,0,0,1-2.45,1.76Zm-18.95,0a6.15,6.15,0,0,1-3.86-5.44V70.85a7.45,7.45,0,0,1-2,.25,7.16,7.16,0,0,1-2.49-.41v1a4.86,4.86,0,0,0,1.47.16h1.5v4.49h-14a1.7,1.7,0,0,0,1.45,1.45Zm23.1-4.14.12-.06v-.08Zm11.06,0-.05-.08v.05Zm-60.73-6.57c.08-.72.13-1.59.16-2.65a2.22,2.22,0,0,0-.68-.14l-1.36-.13v-.58A6.46,6.46,0,0,1,257.25,66h.1c1,0,2.22-.06,3.58-.18l1.63-.14Zm18.19-7.56c.18-.08.37-.16.57-.23-.2-.34-.39-.69-.57-1.06ZM269,59.44l.82-.08v-.19Zm43.4-.67-1.36.46,1.36-.1Zm15-.23a16.88,16.88,0,0,1-2.8-5.13c-.44.25-.9.49-1.36.72v4.41Zm-26.46-1.2v-1c-.42-.18-1.65-.52-4.92-.57h-1.93c-4.46.15-5,1-5,1l-.21.51Zm-11.75-8.06c0,.59,1.54,1.24,4.92,1.28H296c3,0,5-.54,5-1.37V48.1c-.42-.18-1.65-.52-4.92-.57h-1.93c-3.47.12-4.58.68-4.9.92Zm15.86.31a11.83,11.83,0,0,0,2.78-1h-.19a2.15,2.15,0,0,1-2.34-2.07c-.06-.82-.14-1.7-.25-2.63v5.74Zm-27-2.26c-.69.62-1.42,1.22-2.17,1.79q1.25-.12,2.37-.3C278.18,48.33,278.12,47.84,278.06,47.33ZM323,46.2c-.81.78-1.66,1.53-2.55,2.23a20.62,20.62,0,0,0,2.76-.76C323.14,47.2,323.08,46.7,323,46.2Zm-13.26,1.12.4-.32-.3.15Zm-25.41-4.8A16.17,16.17,0,0,0,285,46V42.52Zm4.85-1.5c0,.59,1.54,1.24,4.92,1.29H296c3,0,5-.54,5-1.38v-.76a17.32,17.32,0,0,0-3.74-.43h-4.5a15.35,15.35,0,0,0-3.51.57Zm-15.05-6a20.18,20.18,0,0,1-1.76,1.7c.67-.09,1.33-.21,2-.34a9.37,9.37,0,0,0,.48-1c0-.06,0-.09,0-.11Zm43.5.66c-.19.22-.39.43-.59.64l.32,0Z"/><path class="cls-3" d="M321.18,25.62h0m0,0a22.24,22.24,0,0,1-2.41,5.85h11.78a30.47,30.47,0,0,1-3.8,7.79h.74q.64,6.78,3.9,8.07-.47,5.85-.75,12.16-3.52-2.33-5.19-8.35a26.51,26.51,0,0,1-3.71,2V60h8.72v1.39c-1.3.07-1.95.44-1.95,1.12q.18,8.34.84,11c1.35,0,2-.34,2-1,0-1.11.58-1.67,1.76-1.67s1.67.84,1.67,2.32c-.37,1.74-2.45,2.6-6.22,2.6-3.15-.56-5.44-3.89-6.86-10v8.07q0,1.77,4.17,1.77v1.57H309.58V75.54q4.28,0,4.27-1.77v-7q-2,7.79-7.05,7.88a9,9,0,0,1-2.41-.28c-1.18,2-4.08,3.06-8.72,3.06q-8.54,0-8.91-5.19V68.11a4,4,0,0,1-3.52,1.49q-3,0-4-2.23V72c0,.93,1,1.39,3,1.39v1.49h-14V73.4c2,0,3.06-.46,3.06-1.39v-7.7q-1.86,9.38-7.7,9.46a7.34,7.34,0,0,1-2.51-.37q-.18,21.25-1.48,23.94-2.22,11.41-10.3,14.19-.83-10.2-1.76-20.59h1.95c.12,1.17,1.11,1.76,3,1.76q4.08-1,4.91-25.24c1,0,2.29-.06,3.71-.18v2a1.49,1.49,0,0,1,.38.93c0,.43-.13.71-.38.83,0,.5.31.8.93.93,1.36-.06,2.1-2.54,2.23-7.42,0-1-.68-1.55-2-1.67V61.25a73.46,73.46,0,0,0,9.09-.56V57.07c-1.8.62-3.68,1.24-5.66,1.86-.19.06-.46.4-.83,1a.76.76,0,0,1-.75.37c-.74,0-1.11-.25-1.11-.74-.5-2.47-1.05-5.16-1.67-8.07q7.32-1.11,12.34-10.11c-2.85,1.6-6.37,3.37-10.58,5.28-.31.75-.68,1.12-1.11,1.12s-.74-.19-.74-.56a63.26,63.26,0,0,0-.84-6.77,5.73,5.73,0,0,1-5.1,2.32q-5.66,0-6.4-6.31,0-5.85,6.4-6.68,6.21.38,6.22,6.21a8.35,8.35,0,0,1-.28,2.32q4.17-1,5.84-9.46c0-.93-.8-1.42-2.41-1.48V25.62h13.17a20.55,20.55,0,0,1-11.13,13,41.69,41.69,0,0,0,8.72-.93,13.63,13.63,0,0,0,1-2.13,1.64,1.64,0,0,0-1.11-1.76V32.3h10.95a1.1,1.1,0,0,1-.19.37c.19,1.74,1.7,2.76,4.55,3.07V29.15c0-1-1.33-1.49-4-1.49V25.9H303v1.76c-2.66.07-4,.56-4,1.49v6.68q4.82-.55,4.82-3.9h1.3v9h-1.3c0-1.67-2.19-2.56-6.58-2.69H292.7q-5.94.38-6.68,2.78h-1.3v-5.1a30.8,30.8,0,0,1-3.62,5.94h1.67q.47,6.31,2.88,7.42-.28,5.65-.65,11.51a3.34,3.34,0,0,1,1.76,1.2V58.84H305V72c1.67-.49,2.59-3.18,2.78-8.07,0-1-.62-1.52-1.86-1.58V60.88c2.79,0,5.45-.13,8-.37v-3.9c-1.42.56-2.94,1.08-4.54,1.58q-.29.09-.75,1.11a.86.86,0,0,1-.74.37c-.74,0-1.11-.24-1.11-.74-.68-2.35-1.43-4.92-2.23-7.7q7-1.11,11.78-9.37-3.15,1.95-7.51,4.17-.47,1-1.11,1c-.56,0-.84-.21-.84-.64-.18-2.42-.52-5.23-1-8.45,2.47,0,4.18-3,5.1-9.09,0-.93-.86-1.42-2.59-1.48V25.62h12.89m-9,12.53a34.84,34.84,0,0,0,6.22-.56l1.11-2.41a1.81,1.81,0,0,0-1.48-2v-.56a16.46,16.46,0,0,1-5.85,5.48m2.41,12.34a26.13,26.13,0,0,0,10.3-1.86c-.31-1.79-.55-3.74-.74-5.84a32.52,32.52,0,0,1-9.56,7.7m-44.16.37A47,47,0,0,0,280,50a35.82,35.82,0,0,1-.65-6,35.2,35.2,0,0,1-8.91,6.87m8.82,11.87a5.18,5.18,0,0,1,4-2.32,3.5,3.5,0,0,1,.83.1A15.48,15.48,0,0,1,280.55,53a12.12,12.12,0,0,1-1.3.65v9.09m16.42,12.81c.8,0,1.2-1.21,1.2-3.62V61.53h-2.41V72c0,2.35.4,3.53,1.21,3.53M277.76,25.62h0m52.78,5.85h0m-44.35.83h0m17.34,8.63V47.7h-1.11c0-1.05-2.13-1.6-6.4-1.67h-2c-3.77.13-5.91.78-6.4,1.95h-1.21V41h1.21q0,2.7,6.4,2.79H296q6.49,0,6.49-2.88h1.11m0,8.26V56h-1.11q0-1.58-6.4-1.67h-2c-3.77.13-5.91.77-6.4,2h-1.21v-7h1.21c0,1.8,2.13,2.72,6.4,2.78H296c4.33,0,6.49-1,6.49-2.87h1.11m-49.26,2.22q6.5.38,6.5,6.41,0,7.05-6.5,7.05-5.83,0-6.77-6.59,0-6,6.77-6.87m13.82,24q0,3.34,2.88,3.9h54.18v6.31q0,4.26-8.53,4.27h-34.7c-.25,1.79-.47,3.49-.65,5.1h47.78v6.59q0,9.74-22.45,9.74H280.45q-11.31-.84-11.5-7.61c.87-1.55,2.44-2.41,4.73-2.6q2.6.84,2.6,4.73,1.75,2.59,5.84,2.69h20.79q14.37,0,14.37-8.62V98.17H272c-1.17,0-1.82-.83-1.95-2.5q.29-4.92.28-8.72h39.24c2.91,0,4.37-.47,4.37-1.39V82.12H271c-1.79.07-2.75,1.39-2.88,4h-1.85V75.44h1.85m57-52.82H305.29v.28H283.58v6.4h-4a29,29,0,0,0,1.05-2.75l1.27-3.93h-20.3V29a10.3,10.3,0,0,0-6.19-2.22h-.29l-.28,0c-5.73.75-9,4.27-9,9.66v.17l0,.18c.67,5.69,4.09,9,9.38,9a11.1,11.1,0,0,0,2.78-.33c.07.66.12,1.3.16,1.91a3.64,3.64,0,0,0,.39,1.51l-.79.12a13.67,13.67,0,0,0-3.3-.58l-.27,0-.27,0c-6,.73-9.4,4.32-9.4,9.84v.21l0,.21c.82,5.82,4.37,9.17,9.74,9.17h.05c-.44,11.95-1.42,17.51-2.18,20.07h-7.92l.29,3.26c.63,7.07,1.22,14,1.76,20.58l.32,3.85,3.65-1.26c6.37-2.2,10.47-7.63,12.2-16.15.46-1.21.9-3.51,1.2-9.11h3.66c0,1.94-.12,4.08-.25,6.39v.39a6.1,6.1,0,0,0,1.52,3.88,7.5,7.5,0,0,0-2.26,2.5l-.4.73,0,.82c.12,4.33,2.69,9.66,14.28,10.52h26.39c16.88,0,25.45-4.29,25.45-12.74V92H323.2c4-1.36,5-4,5-6.37V80.11h.74V78.72c5.18-.06,8.15-1.73,8.84-5l.07-.31v-.32c0-3.73-2.43-5.19-4.5-5.31h-.17a5.44,5.44,0,0,0-1.43.18c-.06-1-.12-2.19-.16-3.6l1,0,.85.55,0-.6h0v-.53l.18-4.14c.19-4.19.43-8.24.74-12l.17-2.2-2.05-.82c-.75-.3-1.67-1.92-2-5.57h0a34.44,34.44,0,0,0,2.92-6.57l1.29-3.93H323.44c.23-.66.44-1.35.64-2.06l1-3.79Zm-3.91,0Zm-35,6.68h0Zm-22.88,1.88a6.91,6.91,0,0,0-.54-.86l.79,0c-.08.29-.16.57-.25.83ZM294.14,49H296l.72,0h-3.1l.48,0Zm-15.95,52.14h36c-.39,1.83-2.27,4.39-11.27,4.39H282.16a4.49,4.49,0,0,1-2.93-.85,8.47,8.47,0,0,0-1-3.54Z"/><path class="cls-6" d="M380.93,113c-3.62,0-6-1.89-6.58-5.31l-.06-.31.08-.31a6.14,6.14,0,0,1,1.85-3.26,23.16,23.16,0,0,1-8-2.72c-4.85,7.1-11.3,11-19.17,11.72h-.13c-6.32,0-8.27-3.29-8.8-6l-.07-.38.11-.37c1-3.17,3-4,4.56-4.09l.35,0,.33.13a4.12,4.12,0,0,1,2.79,4c0,.24,0,.59,1.26.63,4.33-1.34,7.8-5.32,10.33-11.82-5-4.8-9.93-11.48-14.76-19.89l-.3-.53.15-.59c2.48-9.57,4.38-17.76,5.67-24.38H349.3a4,4,0,0,0-2.13,3.5l-.08,1.42h-5.51V38h5.54l.05,1.45c.09,2.61.68,3.93,1.75,3.93h2.62a74,74,0,0,0,1.08-10.84c0-.81-.84-1.48-2.48-2l-1.05-.33V25.42h1.5a101.62,101.62,0,0,0,14.24-.72l.12,0h.11a2.49,2.49,0,0,1,2.8,2.52,23.41,23.41,0,0,1-.1,2.48v.14c-.12.58-.23,1.18-.35,1.82a84.76,84.76,0,0,1-1.86,11.78H379.3l0,1.52q-.07,5.46-.36,10.73h4.63v1.5c0,2,.75,4.39,6.61,4.53h4.1c.3-6.25.46-12.39.48-18.32-9.69-.52-14.25-2.32-14.73-5.77l0-.15v-.15a5,5,0,0,1,4-4.89l.17,0h.18c3.63,0,3.91,2.36,3.91,3.08a5.62,5.62,0,0,0,.12,1.28,36.86,36.86,0,0,0,12.95-2.68c5.22-2.14,7.87-4.7,7.87-7.6V24.2l2.08.88c4.39,1.85,9,3.92,13.7,6.15l1.66.79-1.11,1.47c-3.85,5.09-9.6,8.24-17.12,9.4.08,6.31.38,12.63.88,18.81h5.21c5.74,0,6.48-2.92,6.48-5.46v-1.5h5.13v18H421v-1.5c0-.93,0-3.4-6.27-3.7h-4.88c.27,3.1.59,6.16,1,9.11,4.2,20.27,7.46,26.71,9.46,28.55l.12.11.09.14a.59.59,0,0,0,.4.23,6.32,6.32,0,0,0,.12-1.41v-.45l.24-.37a5.15,5.15,0,0,1,3.89-2.44h.25c2.66.17,4.19,1.9,4.19,4.74,0,2.45-1.09,6.59-8.33,6.79-8.67-.24-15-8.68-19.16-25.73C398.13,104.11,391,112.91,381,113Zm1.49-6.29c1.95-.48,6.37-4.92,11.12-32.21.14-2.32.27-4.65.38-7h-3.73c-5.92.65-6.5,3.13-6.69,4l-.27,1.16H378.5V62.1c-.46,5.93-1.1,11.65-1.93,17.1a73.93,73.93,0,0,1-4.7,15.23,16.26,16.26,0,0,0,4.5,3.33c.22-.06.37-.29.37-1.16v-.55l.35-.42a6,6,0,0,1,4.27-1.92l.34,0,.32.12c1.54.6,3.38,2,3.38,5.49v.1l0,.11a5,5,0,0,1-4.28,4.34,3,3,0,0,1,.68,1.2,6.21,6.21,0,0,1,.55,1.64Zm-24.3-35.85c1.76,4,3.5,7.67,5.18,10.82,1.06-7.31,1.62-18.12,1.65-32.23h-.86C362.55,55.34,360.54,62.54,358.12,70.89Z"/><path class="cls-3" d="M365.06,26.18c.87,0,1.3.34,1.3,1a23,23,0,0,1-.09,2.32c-.13.62-.25,1.27-.37,1.95a93.54,93.54,0,0,1-2.23,13.45h14.1A249.75,249.75,0,0,1,375.08,79a69.8,69.8,0,0,1-5,15.77,18.67,18.67,0,0,0,6,4.55c1.43,0,2.14-.9,2.14-2.69a4.55,4.55,0,0,1,3.24-1.4q2.41.93,2.42,4.09-.47,3.24-4.83,3.24a21,21,0,0,1-11.32-3.43q-7,11.22-18.83,12.25-6.41,0-7.33-4.83.93-2.88,3.25-3.06a2.63,2.63,0,0,1,1.85,2.6q0,2.13,3,2.13,7.71-2.22,11.88-13.73-7.71-7.14-15.22-20.22,4.08-15.78,6-26.26h-3.43a5.6,5.6,0,0,0-3.25,4.92h-2.59V39.54h2.59q.19,5.39,3.25,5.38h3.9a80.23,80.23,0,0,0,1.3-12.34c0-1.54-1.18-2.69-3.53-3.43V26.92a101.52,101.52,0,0,0,14.47-.74M366.45,48h-3.52q-2.42,9.29-6.4,23A138.15,138.15,0,0,0,364,86.11Q366.45,75,366.45,48m44.26-21.52q6.59,2.77,13.64,6.12-5.76,7.61-17.45,9,.09,11,1,21.62h6.59q8,0,8-7h2.13v15h-2.13q0-4.83-7.7-5.2H408.2q.46,5.57,1.12,10.86,5.19,25,9.92,29.41a2.44,2.44,0,0,0,2.14.92c.74-.06,1.11-1.05,1.11-3a3.65,3.65,0,0,1,2.78-1.77q2.79.19,2.79,3.25,0,5.1-6.87,5.29-13.26-.37-19.2-31.73-5.12,32-21.06,32.19-4.37,0-5.11-4.08a4.31,4.31,0,0,1,2.42-3.15c1.23,0,1.95.43,2.13,1.29a4.8,4.8,0,0,1,.56,1.86,3.13,3.13,0,0,0,1.3.84q7-.48,12.8-33.59c.18-3,.34-5.84.46-8.63h-5.38q-7,.75-8.07,5.11h-2v-14h2q0,5.84,8.07,6h5.57q.56-11,.56-21.25Q382,41.4,381.48,37.41a3.52,3.52,0,0,1,2.88-3.53c1.61,0,2.41.53,2.41,1.58,0,1.73.37,2.66,1.12,2.78a38,38,0,0,0,14-2.78q8.82-3.62,8.82-9M377.77,44.92h0m29.93-23v4.53c0,2.78-3.78,4.92-7,6.22a35.3,35.3,0,0,1-11,2.5c-.11-2-1.58-4.3-5.4-4.3H384l-.34.08a6.5,6.5,0,0,0-5.17,6.25l0,.31,0,.3c.71,5,7.46,6.49,14.71,7,0,5-.17,10.16-.4,15.4h-2.67c-5.11-.13-5.11-2-5.11-3v-3h-4.55c.14-3,.24-6.09.28-9.2l.05-3H367.37a75.73,75.73,0,0,0,1.51-10.11c.11-.59.22-1.15.33-1.7l0-.13v-.14a23.57,23.57,0,0,0,.11-2.64,4,4,0,0,0-4.3-4h-.23l-.23,0a100.2,100.2,0,0,1-14,.7h-3v7.43l2.1.66a3.92,3.92,0,0,1,1.43.68,67.06,67.06,0,0,1-.87,9.23h-1.16a6.49,6.49,0,0,1-.42-2.48l-.1-2.9h-8.49V55.9h7.59c-1.14,5.17-2.56,11.06-4.25,17.59l-.31,1.18.61,1.06A93.4,93.4,0,0,0,358,95.23c-2.19,5.21-5,8.51-8.41,9.82a5.58,5.58,0,0,0-3.66-4.37l-.65-.27-.7.06c-1.61.13-4.52,1-5.86,5.13l-.24.73.15.76c.52,2.71,2.54,7.26,10.27,7.26h.26c7.93-.69,14.48-4.48,19.51-11.29a24.79,24.79,0,0,0,4.9,1.81,8.36,8.36,0,0,0-.68,1.89l-.15.61.11.63c.76,4.16,3.69,6.54,8.06,6.54,9.75-.11,16.84-7.48,21.18-21.93,4.38,14.18,10.64,21.23,19,21.47h.16c8.83-.24,9.79-5.88,9.79-8.29,0-3.62-2.14-6-5.59-6.24l-.25,0-.26,0a6.6,6.6,0,0,0-4.9,3c-1.72-2.89-4.39-9.77-7.78-26.09-.3-2.4-.56-4.87-.8-7.37h3.24c4.77.25,4.77,1.71,4.77,2.2v3h8.13v-21h-8.13v3c0,2.08-.38,4-5,4h-3.82c-.41-5.29-.66-10.67-.75-16.05,7.29-1.37,12.93-4.64,16.8-9.76L429,31.45l-3.33-1.58c-4.72-2.23-9.35-4.31-13.75-6.17l-4.17-1.77Zm-48,48.85c1.35-4.66,2.57-9,3.65-12.86-.15,7.39-.47,13.64-1,18.7-.89-1.83-1.78-3.77-2.69-5.84Zm30.56-1.71h2.07c-.09,1.76-.19,3.52-.29,5.28-1.94,11.12-3.8,18.25-5.38,22.81a6.51,6.51,0,0,0-4.11-4.76l-.64-.24-.69,0A7.46,7.46,0,0,0,376,94.66l-.64.75a18.29,18.29,0,0,1-1.64-1.34A77.59,77.59,0,0,0,378,79.58l0-.08v-.08c.26-1.72.51-3.47.73-5.24h5.64l.54-2.32c.35-1.49,2.14-2.43,5.31-2.79Z"/><path class="cls-6" d="M517.2,113.87v-1.5c0-1.75-2.2-2.71-6.53-2.86H479.08c-4,.2-6.61,1.06-7,2.36l-.33,1.07h-4.37v-.28h-19.3v-5.23h1.5c2.38,0,2.58-1,2.58-2.11V58.16c-.23,8.58-.66,16.51-1.27,23.72-1,11.07-4.91,16.68-11.61,16.68h-.11c-5.57-.42-6.4-4.08-6.4-6.23v-.4l.2-.35a7.47,7.47,0,0,1,2.66-2.67l.36-.22h.42a4.3,4.3,0,0,1,3.12,1.16c0-.22,0-.46,0-.71.24-6.56.37-20.5.37-41.44,0-.66,0-1.9-2.84-2.22l-1.34-.14V40.17h16.42V34c0-.79,0-2.26-3.38-2.39l-1.44-.06V26.07h22.29v5.51h-1.5c-1.17,0-2.45.31-3,2.58V46.29c1-2,3-3.79,7-4.25h.24a9.22,9.22,0,0,1,4.66,1.32,88.54,88.54,0,0,1-4.28-10l-.09-.25V30.56l.16-.32A3.2,3.2,0,0,1,475,28.52l.16,0h42.38a3.83,3.83,0,0,1,3.64,2l.18.33v1.91l-.07.22a56.08,56.08,0,0,1-17,26.13c3.94,3.42,7.63,5.64,11,6.62a9.79,9.79,0,0,0,1-.06v-.69h.36c0-.12,0-.27,0-.44v-.63l.44-.43a5.88,5.88,0,0,1,3.68-1.64h.16c2.86,0,4.56,1.53,4.56,4.1,0,4-2.38,6.23-6.69,6.23a37.83,37.83,0,0,1-11.86-1.89v4.16l-1.45,0c-2.68.09-3.53.52-3.75.67v7.55h3.7c8.05,0,8.05-3.29,8.05-4.53v-1.5h5V93.18h-5v-1.5c0-1.47-3-2.44-7.91-2.58h-3.84v14.35h8.89c5.91,0,6.67-2.48,6.67-4.63v-1.5h4.94v16.55Zm-52.11-8.46c0,.49,0,1.48,2.29,2V99h4.76v1.5c0,1.91,2.34,2.9,7,3h8.59V89.1h-5.27c-4.78.26-7.76,1.29-8.32,2.89l-.36,1h-4.41V77.56h4.85v1.5c0,2.29,2.78,3.5,8.27,3.6h5.24V75h0s-.65-.54-3.6-.54h-1.5V71.21a43.82,43.82,0,0,1-9.91,1.09c-2.11,0-5.72-.85-6.23-6.56v-.16l0-.17c.16-1.23.92-3.35,4.21-3.7h.16a4.35,4.35,0,0,1,4.61,3.57l0,.17v.34h1.1c3.37,0,7.47-2.34,12.19-6.81a68.33,68.33,0,0,1-6.49-7c-.83-1.09-1.63-2.26-2.41-3.48a10.47,10.47,0,0,1,.06,1.14c0,5.34-2.74,8.27-7.71,8.27-2.58,0-5.65-.86-7.13-4.5ZM504.32,69.3a43.21,43.21,0,0,1-8-4.26,38.22,38.22,0,0,1-7.74,4.26ZM488.57,35.75a46.32,46.32,0,0,0,7.66,15.15c.29-.36.57-.73.84-1.1a49,49,0,0,0,7.33-14Z"/><path class="cls-3" d="M468.13,27.57v2.51q-3.61,0-4.54,3.89v71.44q0,2.88,4,3.52v2.23h-18v-2.23q4.08,0,4.08-3.61V34q0-3.7-4.82-3.89V27.57h19.29M517.49,30a2.41,2.41,0,0,1,2.32,1.21v1.3A54.27,54.27,0,0,1,501.9,59Q509,65.52,515,67.19c1.79,0,2.69-.25,2.69-.75.24,0,.37-.65.37-1.94a4.42,4.42,0,0,1,2.78-1.21c2,0,3.06.87,3.06,2.6q0,4.73-5.19,4.73a38,38,0,0,1-22.36-7.42,38.27,38.27,0,0,1-23.66,7.6c-2.85,0-4.42-1.73-4.73-5.19.18-1.42,1.14-2.23,2.87-2.41A2.89,2.89,0,0,1,474,65.61a2.51,2.51,0,0,0,.37,1.67h2.23q6.12-.09,14.38-8.35A65.35,65.35,0,0,1,483.44,51a69.15,69.15,0,0,1-9.37-18.18V30.91a1.73,1.73,0,0,1,1.21-.93h42.21m-11.13,4.27H486.6a47.85,47.85,0,0,0,8.72,17.91c.31.37.61.71.92,1a25.28,25.28,0,0,0,2.05-2.51q6.21-8.62,8.07-16.42m-55.48,7.42q0,22.65-1.49,40.08Q448,97.07,439.28,97.06c-3.34-.25-5-1.82-5-4.73a5.93,5.93,0,0,1,2.14-2.14,2.71,2.71,0,0,1,2.32,1c.37,1.92.89,2.88,1.57,2.88.43-.31.68-2,.74-4.92q.38-9.83.38-41.47c0-2.16-1.4-3.4-4.18-3.71V41.67h13.64m21.34,1.86c4.14.18,6.21,2.23,6.21,6.12q0,6.78-6.21,6.77-5.67,0-6.4-6.3,0-5.85,6.4-6.59M505.34,70.8v2.14q-5.2.18-5.2,2v9.18h5.2q9.56,0,9.55-6h2V91.68h-2q0-3.81-9.37-4.08h-5.38V105h10.39q8.16,0,8.17-6.13h1.94v13.55H518.7q0-4.09-8-4.36H479.08c-5,.24-7.82,1.39-8.44,3.43h-1.76v-11h1.76q0,4.37,8.44,4.46h10.11V87.6h-6.77q-8.54.47-9.74,3.89h-1.86V79.06h1.86q0,4.92,9.74,5.1h6.77V75q0-2-5.1-2V70.8h21.25M471.13,24.57H445.84V33l2.88.11c1.94.08,1.94.5,1.94.9v4.7H434.24v8l2.67.29a2.93,2.93,0,0,1,1.48.43,2,2,0,0,1,0,.3c0,19.3-.11,32.63-.32,39.7a7.11,7.11,0,0,0-1.69-.21h-.83l-.72.43a8.87,8.87,0,0,0-3.19,3.22l-.4.69v.8c0,4.47,2.91,7.36,7.79,7.72h.22c4,0,8.76-1.84,11.38-9.39v14.65a1.87,1.87,0,0,1-.05.48,3.07,3.07,0,0,1-1,.13h-3v8.23h19.3v.28h7l.64-2.13h0s.86-1.06,5.65-1.3h31.5c3.67.13,5,.9,5,1.36v3h7.94V95.82H515.7v3c0,1.25,0,3.13-5.17,3.13h-7.39V90.6h2.34c4.71.14,6.1,1,6.41,1.21v2.87h8V75.13h-8v3c0,.91,0,3-6.55,3h-2.2v-5a13.73,13.73,0,0,1,2.3-.23l2.9-.11V72.24a39.2,39.2,0,0,0,10.36,1.38c5.13,0,8.19-2.89,8.19-7.73,0-3.4-2.38-5.6-6.06-5.6h-.16l-.15,0a7.33,7.33,0,0,0-4.59,2.06l-.88.88v.19h-.37v.5A28.66,28.66,0,0,1,506.5,59,57.78,57.78,0,0,0,522.67,33.4l.14-.44V30.43l-.36-.66a5.32,5.32,0,0,0-5-2.79H475l-.33.08a4.65,4.65,0,0,0-3.23,2.51l-.26.51h0V24.57Zm-4.54,9.79c.38-1.28.92-1.28,1.54-1.28h2.94v.31l.18.49q1.31,3.6,2.76,6.82a14.33,14.33,0,0,0-1.66-.17h-.24l-.24,0a11.57,11.57,0,0,0-5.28,1.82v-8Zm24,2.89h11.68a49.81,49.81,0,0,1-6.07,11.13,44.54,44.54,0,0,1-5.61-11.13ZM472.22,59.42c4.67,0,7.81-2.39,8.84-6.55l0,0,0,0a72.49,72.49,0,0,0,5.46,6c-3.81,3.38-7.18,5.21-9.85,5.32a5.86,5.86,0,0,0-5.9-4.07h-.31a6.56,6.56,0,0,0-3.92,1.7V57.75a9.39,9.39,0,0,0,5.63,1.67Zm22.67,8.38c.5-.3,1-.62,1.49-1,.52.33,1,.65,1.55,1Zm-28.3,29.69V70.86a7.29,7.29,0,0,0,6.09,2.94,47.07,47.07,0,0,0,8.41-.74v2.88h3a13,13,0,0,1,2.1.14v5.08h-3.74c-3.28-.06-6.77-.65-6.77-2.1v-3h-7.86V94.49h7l.7-2c.15-.43,1.7-1.59,7-1.89h3.69V102h-7.11c-3.19,0-5.44-.64-5.44-1.46v-3h-7.05Z"/><path class="cls-5" d="M599.5,113.22c-11.15,0-16.81-2.75-16.81-8.18.07-1.55.91-3.51,4.57-4.43l.21,0h.21c2.55.09,4.15,1.7,4.41,4.42.1,2,.88,2.57,2,2.72,3.64,0,4.3-1.71,4.44-3.38V67.67H578.81c-6.51.31-7.28,1.64-7.34,1.79l-.4.9h-2.84c-.2,2.76-.45,5.57-.73,8.39l-.16,1.62-1.61-.3c-2.93-.55-5.07-3.15-6.48-7.91V82.48a8.07,8.07,0,0,1,4.6-2l.15,0h.14A7.43,7.43,0,0,1,568.59,82V70.51h29V91.59c0,5.61-5,8.45-14.86,8.45-8.48,0-13.2-2.54-14-7.56A6.62,6.62,0,0,1,564.06,94a6.36,6.36,0,0,1-4.81-1.85v10.65c0,2.56,1.07,3.6,3.7,3.6h1.5v6.53H541.78v-6.53h1.5c2.56,0,3.6-1,3.6-3.6V97.23c-2.11,6.24-6.21,9.4-12.23,9.4-4.13,0-6.51-2.2-6.51-6v-.42l.22-.36A5.65,5.65,0,0,1,532,97.08l.24,0,.25,0A4.19,4.19,0,0,1,536,99.82a49.77,49.77,0,0,0,.52-5.71c.06-2.78.1-5.54.1-8.18,0-.62,0-1.46-2-1.57l-1.42-.08V79.45L536,79.2a2.79,2.79,0,0,1-.43-1.37c-.61-3.36-1.26-7.08-1.93-11l-.25-1.49,1.48-.24c4.4-.73,8.37-3.36,11.85-7.85-2.45,1.36-5.17,2.81-8.12,4.34a3.22,3.22,0,0,1-2.74,1.76,2.26,2.26,0,0,1-2.52-2.18c-.25-3.43-.65-7.45-1.2-12l-.2-1.68h1.69c5.5,0,8.36-9.58,9.8-17.73a1.9,1.9,0,0,0-.77-.14l-1.44-.06V24.68h19.13l-.5,1.88a48.15,48.15,0,0,1-3.25,8.88h12.64V32.29h4.67v1.5c0,1.91,2.37,2.9,7.05,3h2.79c.27-1.69.5-3.52.69-5.44-.24-.57-1.43-1.33-4.16-1.89l-1.2-.24V24.4H604v4.73l-1.16.27c-1.3.31-2.87.87-3.1,1.86.15,2,.33,3.81.54,5.48h3.15c5.74,0,6.48-2.67,6.48-5v-1.5h5.22V47.44h-5.22v-1.5c0-.72,0-2.91-6.35-3.14h-2.28c1.51,6.81,3.86,10.86,7,12.05.44-2.72,2-3.74,3.16-4.12l.22-.07h.23c4.79,0,5.3,2.8,5.3,4a4.87,4.87,0,0,1,0,.54h2.34V72.49h-5.13V71c0-.51,0-1.7-2-2.54v36.77c0,3.6-2.22,7.91-12.81,8ZM581.8,91.31c0,1.39.19,3,1.1,3,.37,0,1.37,0,1.37-3.14V77H581.8ZM541.46,78.16a4.23,4.23,0,0,0-.35.55c1.94-.18,3.87-.38,5.77-.58v-2C545.17,76.84,543.36,77.52,541.46,78.16Zm22.77-25.55,0,1.46c.1,4.55,1.09,7.85,2.94,9.84V58.08h.3a6.25,6.25,0,0,1-1-3v-.18l0-.18c.2-1.34,1.09-3.64,4.72-3.86h.26a3.39,3.39,0,0,1,3.1,3.58,1.49,1.49,0,0,0,.37.7c3.28-1.61,5.84-5.75,7.62-12.33H581c-4.07.21-6.63,1.08-7.13,2.45l-.36,1h-4.22V41.93a50.44,50.44,0,0,1-5.9,10.68Zm-6.69,6.86a49.07,49.07,0,0,1-5.11,4.38,36.71,36.71,0,0,0,5.32-.93Q557.63,61.26,557.54,59.47Zm14.83,1.21c1.1.68,3.35,1.08,6.46,1.11h28.93a8.18,8.18,0,0,0,5-1.21,12.89,12.89,0,0,1-2.21.57l-.13,0h-.14c-8-.06-14.28-4.46-18.64-13.1-5.52,8.45-11.35,12.73-17.34,12.73A13.81,13.81,0,0,1,572.37,60.68ZM554,40a33.24,33.24,0,0,1-6.8,7.5c1.79-.12,3.59-.3,5.37-.54.86-1.93,1.67-4,2.4-6.18a1.15,1.15,0,0,0-.1-.46Z"/><path class="cls-3" d="M602.47,25.9v2q-4,.93-4.27,3.25c.19,2.6.43,4.95.75,7.05h4.45q8,0,8-6.49h2.22V45.94h-2.22q0-4.35-7.8-4.64h-4.17q2.51,13.28,8.81,15.12c1,0,1.49-.43,1.49-1.29a3.25,3.25,0,0,1,2.13-3c2.54,0,3.8.83,3.8,2.5q0,4.08-5.38,5Q598,59.58,591.8,44.92,583.27,59.3,574.27,59.3c-4,0-6.07-1.45-6.31-4.36.24-1.61,1.36-2.47,3.34-2.6,1.17.13,1.76.9,1.76,2.32q.56,2,2,2,6.4-2.69,9.37-15.4H581c-5,.25-7.8,1.39-8.54,3.44h-1.67v-11h1.67q0,4.37,8.54,4.45H585q.56-3.24.93-7c-.25-1.48-2-2.57-5.38-3.25v-2h21.89m-44.07.28q-4.26,16.14-16.33,23a79.59,79.59,0,0,0,11.51-.84A70.38,70.38,0,0,0,556.45,41q0-1.67-1-2v-2h14a49.16,49.16,0,0,1-9.18,17.17h2.5Q563,62.54,567,65.79q-.37,6.31-1,12.81-4.46-.84-6.22-10.76-.91.64-2,1.29v33.68q0,5.1,5.2,5.1v3.53H543.28v-3.53q5.1,0,5.1-5.1V73.87a81.2,81.2,0,0,1-7.7,3,3.77,3.77,0,0,0-1,1.4,1.21,1.21,0,0,1-1.11.65c-1,0-1.48-.41-1.48-1.21q-.93-5.1-2-11.13,9.55-1.58,16.23-13.73-5.57,3.33-13.82,7.6c-.5.93-1,1.4-1.67,1.4s-1-.25-1-.75q-.37-5.19-1.21-12.06,8,0,11.32-19.2c0-1.05-.74-1.61-2.23-1.67V26.18H558.4M547.08,65.61A42.42,42.42,0,0,0,559.33,64c-.18-2.47-.34-5.19-.46-8.16a47.9,47.9,0,0,1-11.79,9.74m22.36-28.67h0M618,56.7V71h-2.13q0-3.52-5-4.55v38.78q0,6.41-11.32,6.5-15.3,0-15.31-6.68.09-2.13,3.44-3,2.68.09,3,3.06.18,3.7,3.43,4.08,5.65,0,6-4.82V66.17H578.81q-7.69.36-8.72,2.69H568.7V59.58h1.39q0,3.62,8.72,3.71h29q8.07,0,8.07-6.59H618M596.07,72V91.59q0,6.94-13.36,7-12,0-12.62-6.86V72h26M582.9,95.85c1.91,0,2.87-1.54,2.87-4.64V75.54H580.3V91.31c0,3,.86,4.54,2.6,4.54M547.08,79.62Q547,85.1,546.71,91q-1.76,14.1-12.06,14.1c-3.34,0-5-1.51-5-4.55a4.19,4.19,0,0,1,2.69-2,2.72,2.72,0,0,1,2.32,2q.38,1.86,1.86,1.86,1.11-.56,1.48-8.26c.06-2.78.1-5.53.1-8.25q0-2.88-3.44-3.06V80.82q6.23-.55,12.43-1.2m17,2.32q5.1.27,5.1,5.1,0,5.47-5.1,5.47-4.63,0-5.19-5.1c0-3.15,1.73-5,5.19-5.47m41.41-59H577.58v7.49l2.4.49a9.65,9.65,0,0,1,2.9.95c-.13,1.18-.27,2.32-.42,3.41H581c-3.2,0-5.54-.64-5.54-1.45v-3h-7.67v3.15h-8.81a50.28,50.28,0,0,0,2.37-7l1-3.77H539.72V31l1.94.08c-1.87,9.51-4.76,14.91-8,14.91h-3.38l.4,3.37c.55,4.46,1,8.44,1.19,11.84a3.71,3.71,0,0,0,1.23,2.62l-1.41.24.5,3c.65,3.88,1.29,7.52,1.89,10.83l-2.4.21v7.63l2.84.15a4,4,0,0,1,.6.08c0,2.61,0,5.35-.1,8.14,0,.83-.08,1.56-.13,2.19a5.59,5.59,0,0,0-2.2-.71l-.49,0-.49.11a7.17,7.17,0,0,0-4.6,3.4l-.44.72v.84c0,4.73,3,7.55,8,7.55a14.81,14.81,0,0,0,5.63-1v7.35H566v-9.53h-3c-1.91,0-2.2-.47-2.2-2.1V94.94a9.12,9.12,0,0,0,3.31.57,9.4,9.4,0,0,0,3.73-.7c1.43,3.48,5.31,6.7,14.75,6.73a5.44,5.44,0,0,0-1.34,3.37V105c0,6.42,6.16,9.68,18.31,9.68,11.84-.1,14.32-5.22,14.32-9.5V74H621V53.7h-2.4c-.39-2.34-2.3-4.54-6.72-4.54h-.46l-.44.14a5.77,5.77,0,0,0-3.61,3.28c-1.69-1.45-3.1-4.24-4.17-8.28h.37c.92,0,4.85.27,4.85,1.64v3h8.22V28.75h-8.22v3c0,1.47,0,3.49-5,3.49h-1.82c-.13-1.15-.24-2.36-.34-3.64a5.18,5.18,0,0,1,1.91-.73l2.32-.54V22.9ZM558.4,29.18h0Zm11.05,4.76Zm-1.28,13.8h6.34l.72-2s.7-1.12,5.3-1.43c-1.27,4-2.87,6.8-4.74,8.43a4.72,4.72,0,0,0-4.18-3.4l-.25,0-.25,0a6.35,6.35,0,0,0-5.38,3l0-.51c.88-1.31,1.7-2.68,2.46-4.09Zm-16.72-2.13.11-.12,0,.11Zm30.34,14.68c3.33-1.84,6.54-4.94,9.68-9.34a24.27,24.27,0,0,0,9.16,9.34Zm-31.65,16h0Zm10.61,3.46V78.63a10.09,10.09,0,0,0,.77.83c-.27.08-.52.18-.77.28Zm30.76,20.73a11.53,11.53,0,0,0,5.55-3.25v7c-.08,1-.25,1.9-2.86,1.94-.39-.06-.56-.2-.61-1.23v-.13a6.42,6.42,0,0,0-2.07-4.38ZM543.8,104.9a14,14,0,0,0,1.57-1.67c0,1.23-.39,1.6-1.57,1.67Z"/><path class="cls-5" d="M672.22,112.66v-5.23h1.5c3.24,0,3.8-.65,3.8-.65V98H670.2c-2.75.18-6.26.85-6.81,3l-.28,1.14h-4c-1.06,3.79-4.69,7.33-14.48,7.33-12,0-14.53-5.55-14.58-10.21V74.69h29.44V86.75h4v1.5c0,1,0,3.54,6.79,3.69h7.28V90.19c-10.33-.93-15.63-4.38-15.77-10.26V63h45.49V79.9c0,5.91-5.4,9.37-16.05,10.29v1.75h9.35c5.91,0,6.67-2.47,6.67-4.62v-1.5h4.94v16.45H707.2v-1.5c0-2.1-3.56-2.66-6.53-2.77h-9.49v8.8s.5.63,3.51.63h1.5v5.23ZM642.66,98.73c.09,3,.67,4.85,1.58,5.08,1.33-.09,2-1.8,2-5.08v-18h-3.58Zm32.47-19.46c.2,2.21,1.27,5.13,7.92,5.34,10.32,0,10.32-4,10.32-5.27v-.63H675.13Zm18.24-6.81v-3.4H675.13v3.4ZM631.31,73.7V60h-.19V47.53h-3.71V32.1h4.86v1.5c0,.9,0,3.19,5.44,3.63V30.31c-.23-.14-1.06-.5-3.51-.5h-1.5V24.68h22.95v5.11l-1.48,0a8.17,8.17,0,0,0-3.53.54v6.71c2.44-.35,3.68-1.17,3.68-2.44v-1.5h3.24v-8h4.86v1.5c0,.81,0,3.27,6.88,3.42h31.6c5.91,0,6.67-2.52,6.67-4.71v-1.5h5V40.3h-2.32V52.44c0,3.85-2.16,8.59-12.44,9.29H672.24c-7.9-.14-12.5-3.07-13.72-8.7l0-.16v-7h-4.17V44.45c-.21-.2-1.42-1-7.06-1.09H639c-2.62.17-5.94.79-6.71,2.75h3.48v1.5c0,1.91,2.34,2.9,7,3h3c3.3,0,7.22-.46,7.22-2.67v-1.5h4.49V59.13h-4.49V57.75c-.24-.21-1.53-1-7.06-1.12h-3.13c-5.76.28-6.82,1.69-7,2.28l-.26.84H636v1.5c0,1.91,2.21,2.9,6.59,3h3.32c6.76,0,6.76-2.29,6.76-3v-1.5h4.57V73.14h-4.57v-1.5s-.29-1.32-6.61-1.47h-3.49c-3.85.2-6.23,1.07-6.63,2.45l-.32,1.08Zm53.25-18.59V46H684v9.15Zm11.26-.56a2.73,2.73,0,0,0,1.54-2.76V46h-1.54Zm-24.59-2.68a3.56,3.56,0,0,0,1.36,2.59V46h-1.36Zm36.34-12.25V38.8c0-2.12-3.56-2.72-6.55-2.86h-5.2v3.68Zm-23,0V35.94H684v3.68Zm-12,0V35.94h-3.27c-4.07.31-6.54,1.3-7,2.79l-.24.89Z"/><path class="cls-3" d="M711.11,25.35V38.8h-2q0-4-8-4.36h-6.77v6.68h14.47V52.44q0,7.05-11,7.79H672.24q-10.68-.18-12.25-7.52V41.12h14.1V34.44h-4.82q-7.42.56-8.35,3.89h-1.86V26.64h1.86q0,4.74,8.35,4.92H700.9q8.16,0,8.17-6.21h2M682.53,41.12h3.53V34.44h-3.53v6.68m11.79,15.4q4.54-.65,4.54-4.73V44.46h-4.54V56.52m-11.79.09h3.53V44.46h-3.53V56.61m-8.44-.09V44.46h-4.36V52q.56,4.08,4.36,4.55M654.15,26.18v2.13q-5,.11-5,1.86V38.7q6.68-.36,6.68-4.08h1.48v9.74h-1.48c0-1.6-2.85-2.44-8.54-2.5H639c-4.88.31-7.64,1.7-8.25,4.17h-1.86V33.6h1.86q0,5,8.25,5.2h.19V30.17q0-1.86-5-1.86V26.18h19.95M634.29,47.61q0,4.37,8.44,4.45h3q8.73,0,8.72-4.17h1.49v9.74h-1.49c0-1.54-2.84-2.38-8.53-2.5h-3.16c-5,.24-7.82,1.36-8.44,3.34h-1.67V47.61h1.67m21.43,13.55V71.64h-1.57c0-1.86-2.7-2.85-8.08-3h-3.52c-4.77.25-7.46,1.42-8.07,3.53h-1.67v-11h1.67q0,4.36,8.07,4.45h3.34q8.25,0,8.26-4.54h1.57m50,3.34V79.9q0,7.88-16.05,8.9v4.64h10.85q8.16,0,8.17-6.12h1.94v13.45H708.7q0-4-8-4.27h-11v10.3q0,2.13,5,2.13v2.23h-21v-2.23q5.29,0,5.29-2.13V96.5H670.2q-7.34.47-8.26,4.18h-1.86V88.25h1.86q0,5,8.26,5.19H679V88.8q-15.59-1-15.77-8.9V64.5h42.49M673.63,74h21.24v-6.4H673.63V74M683,86.11q11.87,0,11.87-6.77V77.21H673.63v2.13q.55,6.5,9.37,6.77m-25-9.92v23.1q0,8.71-13.36,8.72-13,0-13.08-8.72V76.19H658m-13.82,29.13q3.61,0,3.61-6.59V79.25h-6.58V98.73q.18,6.21,3,6.59m70-83h-8v3c0,1.28,0,3.21-5.17,3.21H669.3c-2,0-5.38-.36-5.38-1.92v-3h-6.77v-.46H631.2V30.6h-5.29V49h3.71V61.47h.19V73.19h-1.3v26.1c0,4.39,2.19,11.72,16.08,11.72,10,0,14-3.65,15.54-7.33h4.15l.57-2.28c.24-1,2.32-1.69,5.44-1.9H676v6.27a13.08,13.08,0,0,1-2.29.16h-3v8.23h27v-8.23h-3a10.86,10.86,0,0,1-2-.14V99.5h8c4.27.16,5,1.13,5,1.15h0a.24.24,0,0,1,0,.12v3h7.94V84.32h-5.93a9.44,9.44,0,0,0,1-4.42V61.5h-3c5.14-2.33,6.09-6.39,6.09-9.06V41.8h2.32V22.35Zm-62,9.12a15,15,0,0,1,2.06-.16l1.86,0v.34h-3.24v3a.38.38,0,0,1,0,.15,1.73,1.73,0,0,1-.66.38V31.47Zm-18.37-.16h.43a14.46,14.46,0,0,1,2,.12v4.09c-2.44-.5-2.44-1.52-2.44-1.92V31.31Zm63.55,6.13H701a13.82,13.82,0,0,1,4.11.68h-7.81v-.68Zm-27.94,0h1.71v.68h-5.62a17.11,17.11,0,0,1,3.91-.68Zm-30.26,7.42h8.16a32.64,32.64,0,0,1,4.14.26v2.77a.45.45,0,0,1,0,.12s-.89,1.05-5.71,1.05h-3c-3.19,0-5.44-.63-5.44-1.45V45.06c.56-.09,1.17-.16,1.83-.2Zm19.6,15.77h.19V57.69a11.44,11.44,0,0,0,4.63,3.81h-3.3V73.19h-1.52V60.63Zm-15.91-2.5h3.05a26.28,26.28,0,0,1,5.29.51v2.52c0,.33,0,.51-.52.78s-1.82.76-4.74.76h-3.34c-2.32,0-5.07-.42-5.07-1.45V59.17c.58-.33,2-.87,5.33-1Zm33.82,12.43h15.24V71H676.63v-.4Zm-34,1.11H646a16,16,0,0,1,5.11.67v.85H637.31l.05-.15c.06-.22,1.2-1.15,5.27-1.37Zm34.18,8.54h15c-.35,1.19-1.89,2.89-8.72,2.9-4.58-.15-5.85-1.64-6.24-2.9Zm-32.65,2h.58V98.73a11.48,11.48,0,0,1-.26,2.75,13.14,13.14,0,0,1-.32-2.8V82.25Zm16.79,3V83.56a8.91,8.91,0,0,0,.91,1.69Zm37.74,5.19a16.89,16.89,0,0,0,7-3.52v.4c0,1.24,0,3.12-5.17,3.12Zm-28.49,0c-5.26-.13-5.26-1.68-5.26-2.19v-.08a19.24,19.24,0,0,0,5.26,2.27Z"/></g></g></svg>