<svg xmlns="http://www.w3.org/2000/svg" xmlns:xlink="http://www.w3.org/1999/xlink" viewBox="0 0 30 30"><defs><style>.cls-1{fill:none;}.cls-2{fill:#b29d64;}.cls-3{clip-path:url(#clip-path);}.cls-4{fill:#fff;fill-rule:evenodd;}</style><clipPath id="clip-path"><rect class="cls-1" x="5" y="5" width="20" height="20"/></clipPath></defs><g id="圖層_2" data-name="圖層 2"><g id="圖層_1-2" data-name="圖層 1"><circle class="cls-2" cx="15" cy="15" r="15"/><g class="cls-3"><g id="Twitter"><rect id="Rectangle_1457" data-name="Rectangle 1457" class="cls-1" x="5" y="5" width="20" height="20"/><path id="Path_2" data-name="Path 2" class="cls-4" d="M11.33,23.72A11.56,11.56,0,0,0,23,12.26V11.5a8.91,8.91,0,0,0,2-2.11,9.1,9.1,0,0,1-2.33.66,4.28,4.28,0,0,0,1.77-2.22,9.81,9.81,0,0,1-2.55,1,4,4,0,0,0-3-1.33,4.16,4.16,0,0,0-4.11,4.11,2.08,2.08,0,0,0,.11.89A11.51,11.51,0,0,1,6.44,8.17a4.31,4.31,0,0,0-.55,2.11,4.38,4.38,0,0,0,1.78,3.44,3.71,3.71,0,0,1-1.89-.55h0a4.06,4.06,0,0,0,3.33,4A3.47,3.47,0,0,1,8,17.28a1.9,1.9,0,0,1-.78-.11,4.24,4.24,0,0,0,3.89,2.89A8.38,8.38,0,0,1,6,21.83a3,3,0,0,1-1-.11,10.43,10.43,0,0,0,6.33,2"/></g></g></g></g></svg>